<?xml version="1.0" standalone="no"?>
<!DOCTYPE svg PUBLIC "-//W3C//DTD SVG 20010904//EN"
 "http://www.w3.org/TR/2001/REC-SVG-20010904/DTD/svg10.dtd">
<svg version="1.0" xmlns="http://www.w3.org/2000/svg"
 width="1024.000000pt" height="1536.000000pt" viewBox="0 0 1024.000000 1536.000000"
 preserveAspectRatio="xMidYMid meet">
<metadata>
Created by potrace 1.10, written by Peter Selinger 2001-2011
</metadata>
<g transform="translate(0.000000,1536.000000) scale(0.050000,-0.050000)"
fill="#ffffff" stroke="none">
<path d="M8906 30601 c-23 -21 -45 -35 -50 -31 -4 5 -9 -9 -11 -31 -1 -25 10
-38 31 -37 22 1 25 5 8 12 -20 7 -20 16 -3 38 13 15 34 22 46 15 13 -8 16 -6
8 3 -8 9 -5 28 8 43 33 40 11 33 -37 -12z"/>
<path d="M8914 30365 c9 -83 40 -133 38 -61 -1 27 8 44 23 41 14 -3 25 4 25
15 0 11 -13 20 -30 20 -16 0 -30 14 -30 30 0 17 -8 30 -17 30 -10 0 -14 -34
-9 -75z"/>
<path d="M4748 30233 c-6 -15 18 -69 52 -120 76 -112 154 -300 172 -412 l13
-83 -113 111 c-63 61 -125 111 -138 110 -13 0 8 -28 46 -62 l70 -62 -70 50
c-38 28 -70 62 -70 78 0 80 -436 234 -710 250 -277 17 -825 -153 -805 -249 4
-15 -4 -21 -15 -14 -26 16 -84 -27 -69 -51 5 -9 -1 -23 -14 -31 -14 -9 -18 -6
-9 9 36 59 -30 12 -131 -92 -138 -143 -204 -238 -185 -268 8 -14 5 -18 -7 -10
-74 45 -254 -468 -217 -616 19 -77 54 -64 210 81 78 72 142 128 142 123 0 -4
-15 -51 -33 -104 -40 -120 -29 -410 20 -505 32 -63 32 -64 -29 -107 -103 -74
-279 -316 -193 -267 15 8 18 7 8 -4 -9 -10 -26 -18 -38 -18 -82 0 -125 -423
-56 -558 39 -76 39 -76 -2 -119 -244 -257 -316 -992 -125 -1283 32 -49 31 -59
-12 -203 -70 -237 -53 -485 46 -691 83 -172 167 -283 199 -263 12 7 15 4 8 -9
-13 -20 19 -53 52 -54 8 0 13 -6 10 -13 -17 -46 324 -292 367 -266 15 10 19 7
10 -8 -16 -26 152 -108 369 -180 190 -63 519 -140 519 -122 0 20 -42 33 -164
50 -68 10 -90 21 -82 41 7 20 31 24 88 15 l78 -12 -51 92 c-29 51 -45 103 -37
116 9 14 6 18 -9 9 -13 -8 -23 -5 -23 7 0 56 61 11 91 -69 31 -82 183 -250
225 -250 10 0 17 -12 17 -27 0 -17 -14 -24 -36 -18 -22 6 -38 -1 -38 -18 -1
-15 -10 -9 -19 13 -16 37 -17 36 -19 -10 -1 -37 -6 -43 -19 -22 -12 19 -24 -5
-40 -78 -31 -144 -69 -190 -322 -389 -121 -96 -216 -182 -210 -191 6 -9 0 -24
-13 -32 -14 -9 -18 -6 -9 9 22 36 1 28 -101 -37 -221 -140 -399 -171 -544 -95
l-86 45 -5 181 c-4 191 -83 384 -147 360 -13 -5 -22 1 -20 14 7 32 -121 95
-191 95 -53 0 -55 4 -43 67 21 115 -45 306 -141 406 -77 81 -151 119 -118 62
8 -15 7 -18 -4 -8 -10 9 -18 27 -18 40 0 12 -43 34 -96 47 -148 36 -418 -19
-381 -78 8 -14 4 -16 -12 -7 -36 23 -158 -102 -213 -219 -71 -149 -52 -471 25
-441 15 5 27 0 27 -12 0 -13 -20 -16 -50 -9 -204 52 -404 -332 -301 -579 26
-63 25 -77 -10 -154 -58 -128 -40 -403 24 -363 9 5 11 -4 5 -21 -13 -33 118
-211 155 -211 10 0 13 10 5 23 -9 15 -5 18 9 9 13 -8 19 -23 13 -33 -16 -25
84 -85 112 -68 15 10 19 7 10 -8 -26 -42 89 -70 157 -38 l59 29 -99 37 c-54
21 -121 58 -149 83 -52 49 -92 62 -68 23 9 -15 5 -18 -10 -8 -14 8 -20 20 -14
25 5 6 -21 55 -58 109 -128 186 -113 358 43 496 240 211 653 133 682 -129 24
-210 -233 -317 -523 -218 -52 18 -99 27 -106 21 -22 -22 14 -77 44 -66 16 6
27 2 25 -10 -14 -65 301 -101 406 -46 59 30 59 30 58 -25 -2 -50 -4 -51 -19
-16 -13 30 -16 23 -10 -30 4 -38 8 -86 9 -106 1 -33 5 -33 61 -4 38 20 72 25
91 14 25 -14 21 -21 -22 -41 -28 -13 -60 -18 -71 -12 -10 6 -23 -2 -30 -18
-11 -30 -66 -23 -89 10 -6 9 -42 -11 -80 -45 -38 -33 -56 -54 -41 -46 19 9 23
6 14 -9 -8 -13 -33 -23 -56 -23 -34 0 -37 -5 -16 -30 13 -16 34 -24 45 -17 13
8 15 3 7 -10 -8 -13 -23 -18 -33 -12 -11 6 -19 2 -19 -10 0 -11 -10 -21 -22
-21 -17 0 -17 7 -1 27 21 25 12 53 -17 53 -79 0 -10 -633 79 -722 88 -88 370
-144 391 -77 8 24 23 33 45 24 21 -8 24 -15 9 -20 -13 -5 -24 -17 -24 -28 0
-11 11 -13 25 -5 51 30 0 -13 -84 -69 -49 -33 -101 -54 -118 -48 -19 8 -24 4
-15 -12 8 -13 2 -23 -15 -23 -16 0 -46 -6 -66 -12 -21 -7 15 21 79 62 64 41
112 78 107 83 -16 17 -263 -148 -258 -172 4 -13 -3 -18 -15 -11 -28 17 -323
-190 -307 -215 8 -12 3 -15 -10 -7 -30 19 -147 -65 -130 -93 8 -12 4 -15 -10
-7 -27 17 -269 -143 -253 -168 6 -9 0 -24 -13 -32 -14 -9 -18 -6 -9 9 22 35
-5 28 -70 -19 -32 -22 -52 -51 -45 -63 8 -13 4 -15 -10 -7 -28 18 -188 -103
-172 -130 6 -9 -2 -13 -17 -7 -16 6 -33 0 -38 -15 -13 -37 6 -316 21 -316 7 0
10 43 7 95 -7 88 -5 92 22 54 39 -53 54 -332 19 -344 -15 -5 -25 10 -25 40 0
63 -17 78 -63 54 -28 -15 -37 -14 -37 7 0 15 20 38 45 50 25 12 33 22 19 23
-42 2 -106 -39 -94 -60 7 -10 -1 -14 -17 -8 -34 14 -113 -80 -113 -135 0 -120
41 -141 612 -308 1299 -379 1228 -356 1294 -438 31 -38 66 -70 78 -70 13 0 3
21 -21 46 -24 26 -38 53 -31 60 7 7 -10 23 -39 36 -28 13 -46 32 -40 43 7 12
-6 14 -33 5 -34 -11 -41 -8 -29 11 11 18 4 22 -28 14 -27 -7 -38 -4 -30 10 9
14 -5 16 -40 8 -31 -8 -53 -5 -53 6 0 11 -13 15 -30 8 -16 -6 -30 -2 -30 10 0
12 -13 17 -30 10 -19 -7 -30 1 -30 21 0 41 0 41 197 -25 183 -62 293 -154 293
-244 0 -116 335 -199 556 -138 87 24 162 0 964 -307 735 -281 776 -295 818
-283 28 8 33 6 17 -6 -37 -26 454 -207 595 -220 121 -11 254 35 228 79 -9 14
-5 17 10 7 26 -16 87 25 72 49 -5 9 6 28 25 43 32 24 32 24 8 -8 -16 -19 -19
-35 -9 -35 23 0 117 98 113 117 -2 7 2 18 8 23 6 6 4 -2 -5 -18 -33 -57 33 -6
288 225 149 133 257 245 249 258 -8 13 -4 15 10 7 14 -9 74 33 148 103 69 65
328 307 576 539 617 577 642 608 570 718 -39 59 -175 127 -256 128 -30 0 -55
11 -55 25 -1 101 -66 429 -90 454 -17 16 -68 45 -114 63 l-84 32 79 25 c116
37 412 201 399 221 -6 9 0 24 13 32 14 9 18 6 9 -9 -24 -39 16 -26 115 37 52
33 90 69 84 79 -7 10 -1 25 12 33 14 9 18 6 9 -9 -8 -13 -5 -23 6 -23 22 0 51
38 53 70 0 11 12 18 26 15 51 -11 430 328 414 369 -6 16 -2 23 7 17 41 -25
324 352 411 546 38 86 38 88 1 115 -21 16 -27 28 -15 28 12 0 29 -10 37 -23
49 -80 118 329 70 419 -58 109 -234 74 -429 -87 -148 -122 -155 -123 -83 -9
424 671 474 1220 99 1093 -123 -42 -273 -130 -259 -153 6 -9 0 -24 -13 -32
-14 -9 -18 -6 -9 9 46 75 -55 -3 -225 -172 -258 -258 -550 -685 -511 -748 9
-14 6 -18 -8 -9 -23 14 -134 -205 -156 -307 -24 -110 -32 -111 -79 -5 -27 59
-57 102 -67 95 -11 -6 -26 -1 -34 12 -9 14 -6 18 9 9 33 -20 29 -2 -20 94 -65
129 -157 256 -177 244 -9 -6 -24 0 -32 13 -9 14 -6 18 9 9 70 -43 -119 229
-228 328 l-55 50 35 -60 36 -60 -41 49 c-22 27 -36 59 -31 73 12 30 -72 91
-101 74 -12 -7 -15 -5 -7 4 9 10 -4 38 -28 64 -45 48 -90 64 -65 23 9 -15 5
-18 -9 -9 -13 8 -19 23 -13 32 22 36 -269 200 -356 200 -120 1 -226 406 -111
424 26 4 45 18 42 31 -2 13 8 19 25 12 17 -6 53 4 81 22 49 32 53 31 105 -24
77 -83 221 -133 341 -119 166 20 292 101 222 144 -11 7 -18 24 -15 38 4 14
-20 48 -52 75 -35 31 -50 56 -37 64 11 7 49 -14 84 -46 35 -32 67 -59 72 -60
5 -1 20 -1 34 -1 18 -1 17 -6 -3 -18 -16 -10 -43 -14 -60 -9 -24 8 -23 3 6
-20 67 -55 235 -78 353 -49 145 36 166 76 84 160 -35 36 -65 75 -68 86 -5 24
-57 78 -57 60 0 -29 49 -104 107 -166 39 -41 49 -61 28 -53 -20 8 -35 4 -35
-9 0 -12 -9 -22 -20 -22 -11 0 -18 7 -16 15 3 8 -21 53 -53 100 -50 75 -54 93
-34 137 13 28 17 62 9 74 -7 13 24 -10 70 -50 46 -41 106 -81 133 -88 28 -7
51 -18 51 -26 0 -7 38 -11 85 -9 l85 5 -80 -17 c-55 -12 -105 -8 -159 10 -104
36 -116 21 -18 -23 239 -107 653 37 432 150 -41 21 -96 61 -122 88 l-47 51 77
-28 c371 -132 783 147 820 557 20 225 -52 351 -123 214 -66 -128 -188 -206
-306 -196 -145 12 -147 183 -4 396 63 94 76 132 37 108 -15 -9 -18 -5 -9 9 8
13 23 19 33 13 10 -7 44 41 77 105 36 73 78 126 111 141 79 36 254 207 243
237 -6 15 0 24 13 22 145 -30 248 693 139 978 -83 217 -363 529 -447 497 -15
-5 -54 8 -87 30 -33 22 -51 40 -39 40 12 0 33 -11 48 -25 22 -20 25 -18 14 12
-10 28 -6 35 17 26 16 -7 30 -5 30 4 0 9 14 16 30 16 44 0 37 -35 -10 -47 -35
-9 -58 -46 -29 -46 133 0 311 258 325 472 18 277 -141 550 -215 369 -14 -32
-42 -73 -62 -92 -21 -19 -34 -42 -28 -50 11 -18 -68 -79 -100 -78 -12 0 5 14
36 31 85 47 53 52 -58 10 -169 -64 -364 -6 -563 168 -94 83 -106 90 -146 90
-11 0 -20 10 -20 22 0 16 9 15 30 -2 19 -16 30 -17 30 -4 0 12 -9 27 -19 34
-11 6 -74 90 -139 186 -117 171 -311 384 -348 384 -10 0 -7 -16 9 -35 24 -32
24 -32 -8 -8 -19 15 -30 35 -24 44 5 9 -10 30 -35 48 -54 37 -84 40 -64 6 8
-15 7 -18 -4 -8 -10 9 -18 26 -18 38 0 35 -216 113 -380 139 -226 35 -400 -5
-693 -159 -7 -4 -8 34 -2 83 17 153 -95 459 -154 422 -10 -6 -25 0 -33 13 -9
14 -6 18 9 9 45 -28 22 13 -31 55 -178 142 -470 239 -498 166z m327 -87 c89
-41 178 -126 133 -126 -8 0 2 -18 23 -41 20 -22 48 -36 63 -30 27 10 100 -82
80 -101 -6 -7 -25 14 -42 45 -22 42 -31 48 -31 20 -1 -28 -13 -22 -56 30 -30
36 -52 75 -48 86 3 12 0 15 -8 7 -22 -22 -92 23 -76 48 7 12 4 17 -7 10 -11
-7 -66 5 -123 27 -119 45 -119 45 -53 -52 27 -41 45 -81 40 -90 -6 -8 -1 -19
11 -23 32 -10 99 -270 98 -376 -2 -101 -33 -205 -40 -130 -2 34 -5 32 -19 -10
-14 -43 -18 -41 -21 10 0 5 -22 33 -49 62 -27 29 -44 61 -38 71 6 10 -1 16
-15 12 -14 -3 -26 6 -26 19 -1 13 -39 51 -86 85 -47 34 -85 67 -85 74 0 7 16
-1 36 -19 20 -18 55 -36 78 -39 54 -9 103 -50 149 -125 l37 -60 -1 100 c0 55
-18 150 -39 210 -21 61 -39 126 -39 146 -1 20 -8 32 -16 27 -9 -5 -36 25 -61
69 -35 60 -39 78 -17 78 16 0 34 14 41 31 14 37 49 29 207 -45z m139 -212 c46
-50 87 -86 93 -81 5 5 16 -1 24 -15 10 -16 7 -19 -11 -8 -20 13 -23 5 -11 -32
38 -124 35 -275 -8 -409 -57 -176 -34 -201 86 -96 319 281 736 325 1108 117
101 -56 113 -60 93 -27 -9 15 -5 18 9 9 13 -8 19 -22 14 -30 -5 -8 44 -68 110
-133 65 -65 119 -110 119 -101 0 9 13 6 28 -6 15 -13 35 -21 45 -18 9 3 21 -3
25 -14 4 -11 22 -31 40 -45 28 -22 27 -24 -6 -12 -30 11 -35 7 -21 -15 14 -24
12 -24 -17 -1 -18 15 -30 34 -25 41 5 8 -9 25 -30 38 -57 36 -51 22 83 -170
127 -183 252 -326 286 -326 10 0 -3 23 -29 51 -35 37 -39 48 -14 38 19 -7 35
-24 35 -36 0 -13 9 -9 20 7 16 26 25 24 64 -15 25 -25 34 -45 21 -45 -12 0
-32 16 -43 35 -12 19 -22 31 -23 25 -14 -68 -9 -85 41 -120 267 -190 567 -185
748 12 l68 74 25 -113 c36 -161 2 -301 -101 -419 -43 -49 -72 -96 -64 -105 8
-8 3 -9 -10 -2 -12 7 -44 5 -70 -5 -25 -11 -71 -25 -101 -31 -30 -6 -55 -21
-55 -32 0 -29 125 -101 156 -89 14 5 21 1 15 -9 -6 -10 18 -39 54 -64 395
-279 510 -880 245 -1285 -19 -27 -27 -61 -19 -74 9 -15 7 -19 -7 -11 -12 8
-59 -25 -105 -72 l-82 -85 13 60 c81 357 90 537 38 736 -64 247 -293 556 -362
487 -21 -21 14 -77 43 -66 15 6 40 -5 55 -23 23 -31 22 -31 -9 -7 -56 44 -41
6 31 -78 77 -90 152 -287 168 -446 6 -62 19 -113 29 -113 9 0 17 -13 17 -30 0
-16 -8 -30 -17 -30 -10 0 -24 -56 -32 -125 -19 -170 -115 -450 -211 -616 -91
-155 -93 -162 -45 -146 29 9 30 7 6 -10 -16 -11 -36 -16 -45 -10 -32 19 -136
-239 -136 -335 0 -241 293 -315 495 -125 l70 67 -10 -75 c-15 -112 -89 -254
-176 -338 -42 -41 -71 -83 -65 -94 7 -11 3 -13 -9 -6 -11 7 -59 -1 -105 -17
-158 -56 -371 -23 -473 73 -26 25 -58 37 -77 30 -72 -28 28 -282 138 -352 l59
-37 -90 -14 c-151 -23 -252 17 -380 151 -62 64 -118 111 -125 105 -39 -40 24
-298 88 -356 61 -55 49 -70 -55 -70 -120 1 -238 54 -352 160 -87 80 -91 81
-112 41 -27 -50 0 -167 51 -223 50 -55 22 -68 -143 -67 -81 0 -138 -5 -127
-12 14 -9 10 -18 -9 -25 -22 -8 -28 -1 -23 26 4 23 -12 50 -41 69 -65 43 -62
60 21 111 39 24 64 53 57 65 -8 13 -4 15 11 6 27 -16 248 163 232 188 -5 9 4
28 20 41 17 14 30 18 30 9 0 -9 32 14 70 51 39 38 66 81 61 95 -6 15 -2 22 9
15 25 -15 129 148 179 281 58 156 81 363 58 534 l-20 147 92 91 c51 52 91 110
91 134 0 58 -16 54 -79 -16 -74 -83 -210 -140 -334 -141 -167 0 -181 14 -89
93 161 137 292 515 251 723 -4 19 -11 67 -16 107 l-10 73 63 -18 c77 -22 301
-28 332 -9 47 29 18 46 -100 58 -67 7 -177 36 -245 65 -67 29 -138 53 -157 54
-19 2 -30 7 -25 11 12 13 -32 63 -56 63 -11 0 -8 -15 8 -33 25 -31 23 -31 -18
-5 -25 15 -37 31 -26 34 11 4 -29 65 -88 137 -195 237 -251 611 -134 902 47
117 33 130 -64 56 -280 -214 -731 -193 -968 44 -136 136 -180 354 -113 553 18
52 26 100 19 108 -25 25 -110 -95 -133 -187 -21 -83 -26 -88 -75 -74 -244 69
-567 -74 -689 -304 -59 -111 -63 -386 -7 -448 36 -40 36 -41 -50 -65 -254 -73
-581 -18 -945 159 -10 4 -10 -3 -2 -17 11 -17 8 -21 -7 -12 -13 8 -19 22 -13
32 6 9 -16 36 -48 58 -285 204 -301 723 -30 1039 88 103 75 127 -38 67 -84
-45 -118 -70 -337 -251 -142 -117 -151 -93 -46 126 78 164 174 303 305 445 48
51 87 101 87 110 1 9 10 14 20 11 10 -3 48 16 83 42 362 272 869 307 1300 91
128 -64 143 -69 122 -35 -9 15 -5 18 9 9 13 -8 19 -22 14 -31 -14 -23 160
-163 180 -145 8 8 10 4 3 -8 -7 -12 10 -53 39 -90 28 -37 64 -97 79 -133 54
-124 101 -80 121 113 18 178 -20 329 -149 588 -23 47 199 -95 270 -172z
m-1137 137 c-5 -6 -55 -12 -111 -14 -77 -2 -100 -10 -92 -30 7 -19 -9 -27 -57
-26 -61 1 -63 3 -21 20 26 10 41 28 34 39 -8 13 37 20 122 20 74 0 130 -4 125
-9z m1324 -369 c-32 -60 -24 -99 9 -42 36 62 44 -62 11 -175 -22 -79 -24 -79
86 -5 49 33 96 60 106 59 9 0 0 -10 -20 -22 -31 -17 -33 -25 -10 -39 20 -13
20 -17 2 -18 -39 0 -49 -6 -113 -64 -33 -30 -63 -51 -68 -47 -4 5 -31 -16 -58
-45 l-51 -54 32 54 c22 36 25 55 10 60 -17 6 -17 19 0 51 13 23 23 101 23 174
0 74 9 131 20 131 11 0 21 16 22 35 0 19 6 24 11 11 5 -13 0 -42 -12 -64z
m1439 -466 c0 -8 -15 -9 -33 -2 -24 9 -29 6 -17 -14 10 -17 8 -21 -6 -12 -12
7 -17 27 -11 43 8 20 2 26 -18 18 -16 -6 -41 5 -56 25 -23 31 -23 32 1 11 40
-36 61 -31 46 10 -10 25 1 21 40 -15 29 -27 53 -56 54 -64z m-3706 -21 c-17
-25 -43 -42 -57 -38 -15 3 -21 0 -13 -8 8 -7 -12 -65 -43 -128 -32 -62 -64
-147 -72 -187 -7 -41 -22 -68 -33 -62 -11 7 -16 -4 -13 -25 3 -20 -2 -50 -12
-65 -12 -19 -10 -24 6 -14 15 9 23 -4 23 -38 0 -36 -8 -48 -25 -38 -14 8 -9
-3 10 -25 19 -22 35 -54 35 -72 0 -17 17 -72 39 -122 28 -66 32 -93 15 -101
-14 -6 -11 -9 6 -7 33 5 207 -172 188 -190 -6 -7 7 -22 30 -34 23 -12 42 -17
42 -11 0 16 155 -66 170 -91 7 -11 31 -15 52 -8 22 6 38 5 36 -4 -7 -41 4 -55
21 -27 15 23 25 24 43 6 12 -12 35 -18 51 -12 19 7 24 0 15 -22 -13 -34 -48
-44 -48 -13 0 10 -25 18 -55 17 -30 -1 -122 26 -204 61 -155 65 -160 65 -241
-18 -16 -17 -28 -27 -25 -22 2 5 -5 20 -16 34 -15 18 -6 37 34 68 l54 42 -79
84 c-43 47 -79 88 -81 91 -6 13 -97 -42 -121 -74 -20 -25 -25 -26 -25 -4 -1
22 -11 20 -46 -8 -25 -19 -3 5 49 54 l93 90 -30 87 c-16 48 -25 103 -20 123 5
20 0 36 -12 36 -30 0 -7 271 34 387 45 129 41 129 -109 -7 -87 -79 -142 -114
-165 -108 -24 7 -35 -1 -36 -26 -1 -31 -4 -30 -19 7 -19 47 -3 211 20 197 8
-5 10 16 5 46 -9 49 -7 51 22 24 25 -24 28 -46 13 -109 -25 -111 -16 -110 116
11 96 89 374 294 401 297 5 1 -6 -19 -23 -44z m3960 -356 c6 -41 -23 -53 -45
-18 -16 26 7 90 25 71 8 -7 16 -31 20 -53z m-2011 -103 c-8 -139 -63 -270 -63
-150 0 54 -30 73 -127 77 -47 2 -52 5 -18 11 25 5 40 17 34 27 -14 24 -4 24
60 -1 44 -16 51 -14 51 20 0 22 10 40 21 40 12 0 16 9 9 20 -15 24 6 100 27
100 8 0 11 -65 6 -144z m3107 -77 c18 -33 27 -68 21 -78 -6 -10 0 -22 14 -28
19 -8 18 -15 -5 -31 -23 -16 -35 -5 -58 51 l-28 72 -66 -78 c-57 -66 -65 -70
-58 -30 10 54 89 185 90 148 0 -14 14 -25 32 -25 20 0 28 11 21 30 -20 53 5
32 37 -31z m-3590 11 c-30 -17 -38 -29 -20 -29 17 -1 3 -18 -30 -38 -33 -20
-63 -30 -66 -21 -4 9 -20 11 -37 4 -20 -8 -23 -16 -8 -25 14 -9 6 -27 -23 -52
-37 -32 -40 -33 -18 -4 44 57 14 60 -39 4 -35 -37 -39 -48 -14 -38 45 17 44 5
-5 -76 -43 -71 -57 -306 -21 -372 10 -20 11 -46 3 -60 -21 -34 -63 17 -70 86
-3 28 -11 57 -19 64 -7 8 -12 50 -11 95 0 45 6 71 11 57 19 -46 43 -26 51 44
4 37 1 64 -8 58 -9 -5 -17 -25 -18 -43 0 -19 -5 -23 -11 -10 -28 69 164 298
300 357 83 36 117 35 53 -1z m372 -45 c12 -8 29 -51 37 -94 76 -416 618 -623
1099 -420 34 14 36 9 24 -41 -47 -187 13 -556 117 -712 85 -129 175 -221 205
-209 15 6 23 2 16 -8 -6 -11 24 -43 67 -71 82 -54 102 -109 103 -272 l0 -72
-197 -24 c-109 -13 -229 -29 -267 -35 l-69 -11 -22 130 c-94 565 -590 939
-1069 805 -123 -35 -289 -124 -269 -145 6 -6 36 7 67 29 71 50 168 82 131 44
-18 -20 -18 -33 -1 -54 19 -23 14 -25 -31 -14 -41 10 -51 7 -43 -14 11 -29
-104 -111 -140 -100 -11 4 -13 0 -5 -9 21 -21 -46 -90 -73 -74 -12 7 -16 6 -9
-3 8 -8 -17 -55 -55 -104 -37 -50 -68 -99 -68 -110 0 -11 -10 -13 -23 -5 -14
9 -18 5 -9 -8 7 -13 0 -43 -16 -68 -95 -149 -127 -551 -63 -795 87 -331 333
-593 591 -630 68 -10 68 -10 -11 17 -307 103 -513 349 -571 682 -166 958 770
1654 1314 977 466 -580 136 -1579 -550 -1667 -102 -13 -105 -15 -30 -17 309
-10 634 276 767 674 37 108 89 538 63 512 -5 -5 -25 55 -45 133 -20 79 -59
183 -86 232 -70 126 -35 195 51 101 64 -71 148 -280 131 -326 -7 -17 -5 -26 5
-20 10 6 23 -37 31 -96 l13 -107 104 17 c57 9 129 12 159 5 36 -7 55 -3 55 13
0 16 22 19 72 10 49 -9 68 -7 59 8 -9 13 13 21 58 21 39 0 71 10 71 22 0 16 9
15 30 -2 31 -25 44 -171 14 -152 -9 5 -13 -17 -8 -49 6 -45 1 -59 -24 -59 -24
0 -30 12 -22 45 11 43 6 45 -124 49 -96 2 -124 -2 -96 -15 28 -13 10 -15 -60
-8 -77 7 -91 5 -60 -11 32 -17 25 -19 -35 -12 -45 6 -71 2 -64 -9 6 -11 -20
-19 -58 -19 -78 0 -82 -7 -103 -175 -12 -89 -20 -105 -57 -107 -34 -2 -35 -5
-8 -12 19 -5 35 -18 35 -29 0 -10 -10 -13 -23 -5 -14 9 -18 5 -9 -9 18 -28
-96 -264 -161 -334 -26 -28 -47 -60 -47 -71 0 -11 -11 -14 -25 -6 -14 8 -18 7
-10 -2 21 -23 -45 -92 -73 -76 -12 7 -16 5 -8 -3 19 -21 -78 -97 -103 -82 -10
7 -26 0 -35 -14 -9 -14 -34 -25 -56 -25 -22 0 -38 -10 -36 -23 6 -29 -84 -62
-215 -79 -95 -13 -97 -14 -85 -74 7 -34 4 -55 -6 -49 -10 6 -17 -55 -15 -142
l3 -153 -16 150 c-26 245 -35 262 -160 294 -107 27 -300 134 -300 167 0 9 -13
19 -28 23 -15 3 -85 78 -155 165 -137 171 -297 278 -457 303 -53 9 -74 21 -67
40 8 20 -5 24 -56 16 -37 -6 -89 -11 -117 -10 -39 1 -44 -3 -20 -18 23 -15 16
-20 -30 -20 -135 -1 -519 -277 -538 -386 -23 -133 -132 -268 -132 -164 0 40
-10 50 -51 50 -34 0 -46 8 -37 23 9 14 5 18 -8 9 -35 -21 -124 9 -124 43 0 20
-13 26 -40 19 -22 -6 -40 -2 -40 8 0 10 -11 18 -24 18 -13 0 -50 25 -81 55
-60 57 -115 33 -115 -49 0 -14 -10 -26 -21 -26 -12 0 -15 10 -8 22 8 12 4 29
-9 37 -17 10 -16 30 4 78 25 59 23 74 -20 165 -96 200 -138 591 -74 689 22 33
25 49 9 49 -15 0 -19 17 -12 45 38 140 60 195 78 195 11 0 14 6 7 12 -18 19
80 202 121 226 19 12 27 21 18 21 -10 1 -7 15 7 31 20 24 20 36 -1 61 -19 23
-20 36 -2 54 17 17 29 14 49 -12 32 -45 66 -10 125 127 21 50 47 97 58 105 12
8 14 15 5 15 -35 0 79 165 133 194 63 32 64 35 -31 -107 -60 -89 -123 -246
-106 -263 5 -6 10 -2 10 9 0 11 11 21 25 22 14 2 58 11 97 21 124 32 394 -13
365 -61 -8 -12 -4 -15 10 -7 25 16 77 -7 86 -38 3 -11 16 -18 27 -15 12 3 57
-31 100 -75 47 -48 66 -80 49 -80 -25 -1 -25 -3 0 -19 16 -10 35 -15 42 -10
50 30 199 -399 199 -572 0 -64 8 -121 17 -127 21 -13 9 209 -20 338 -101 461
-575 820 -903 683 -76 -32 -76 -32 -63 13 21 71 126 237 216 340 l83 95 102
-49 c349 -168 894 -197 1068 -56 l45 36 -43 83 c-153 302 89 644 458 644 72 0
140 -6 152 -14z m227 -283 c24 -34 37 -72 29 -85 -9 -15 -5 -18 10 -8 48 29
251 -107 214 -143 -22 -22 -258 127 -242 153 11 19 -50 75 -68 63 -7 -5 -34
34 -62 85 -43 81 -46 97 -20 113 22 14 37 2 62 -49 18 -37 53 -95 77 -129z
m2446 102 c-2 -12 23 -21 56 -20 33 1 66 -4 74 -12 8 -8 -21 -12 -65 -8 -44 3
-77 14 -73 24 3 10 -6 26 -20 36 -21 15 -21 17 3 10 17 -5 28 -19 25 -30z
m615 -6 c0 -20 -9 -41 -20 -48 -12 -7 -17 -19 -12 -27 5 -8 1 -28 -9 -44 -13
-20 -18 -1 -19 63 0 68 8 91 30 91 17 0 30 -16 30 -35z m-2049 -196 c-6 -10
-2 -22 9 -25 13 -5 13 -30 0 -77 -11 -38 -20 -95 -20 -125 0 -30 -10 -55 -22
-55 -25 0 -19 -135 9 -182 11 -18 13 -50 5 -70 -34 -89 -58 36 -46 244 l12
205 -67 -28 c-36 -15 -72 -22 -78 -15 -7 7 -13 2 -13 -11 0 -12 -20 -22 -45
-22 -43 2 -43 3 -5 19 28 12 31 18 10 20 -18 1 -11 10 17 21 26 11 54 15 63 9
9 -6 20 -3 23 5 6 14 138 104 153 105 4 0 1 -8 -5 -18z m2010 -13 c14 -17 17
-30 7 -28 -42 8 -51 -3 -28 -31 17 -21 18 -30 2 -30 -12 0 -21 -7 -20 -15 8
-47 -8 -67 -20 -25 -8 28 -5 75 6 105 24 65 20 63 53 24z m-5222 -297 c-90
-109 -156 -228 -269 -482 l-35 -80 -26 70 c-54 145 -20 331 90 506 64 100 74
124 42 105 -10 -6 -25 -1 -33 12 -9 14 -6 18 9 9 13 -8 23 -3 23 12 1 20 4 21
16 1 12 -18 35 -6 83 44 l66 68 68 -71 67 -72 -101 -122z m2631 187 l80 -14
-70 -3 c-38 -1 -89 -8 -112 -14 -32 -8 -45 0 -54 31 -9 36 -4 41 33 28 23 -8
79 -21 123 -28z m-1298 -222 c9 -14 5 -18 -9 -9 -13 8 -23 4 -23 -9 0 -13 -13
-18 -30 -12 -16 7 -30 3 -30 -8 0 -10 -9 -19 -20 -19 -35 0 -22 57 15 66 62
16 82 14 97 -9z m-517 -31 c-31 -5 -50 -17 -44 -27 6 -11 -14 -18 -45 -17 -34
2 -42 6 -21 12 20 5 30 17 24 28 -6 10 23 17 65 15 61 -2 65 -5 21 -11z m4329
-150 c49 -47 67 -68 41 -46 -27 22 -64 37 -84 34 -19 -3 -48 11 -63 30 -25 33
-25 34 7 9 39 -31 48 -4 11 33 -16 16 -31 17 -48 3 -28 -24 -58 8 -38 41 17
28 67 -2 174 -104z m-5500 56 c-5 -23 -21 -55 -34 -72 -14 -16 -30 -43 -36
-60 -6 -17 -12 -8 -12 23 -1 30 11 58 28 64 17 7 30 23 30 37 -1 18 -6 17 -20
-4 -17 -26 -19 -26 -20 2 0 38 12 51 47 51 18 0 24 -15 17 -41z m3586 -213
c-7 -10 -4 -19 7 -19 27 0 48 -65 25 -79 -28 -17 58 -145 89 -133 14 5 41 -8
60 -29 20 -23 25 -39 12 -39 -13 0 -23 9 -23 20 0 11 -15 20 -33 20 -28 0 -26
-9 15 -54 26 -30 31 -42 11 -27 -59 46 -155 197 -196 308 -47 130 -47 143 4
92 22 -22 35 -49 29 -60z m-786 0 c113 -38 228 -99 188 -99 -9 0 -5 -14 9 -32
22 -25 22 -34 1 -47 -34 -21 -11 -33 92 -50 75 -13 165 -71 110 -71 -12 0 -27
-18 -34 -41 -11 -33 -19 -36 -41 -18 -16 13 -23 33 -16 44 7 12 4 16 -7 9 -11
-7 -38 6 -58 29 -21 24 -73 69 -116 100 -83 61 -84 79 -1 25 27 -18 49 -28 49
-23 0 77 -484 146 -605 88 -29 -14 -35 -8 -35 33 0 94 256 123 464 53z m-2839
-6 c14 9 16 -5 7 -42 -9 -35 -6 -50 7 -41 12 7 21 4 21 -7 0 -10 -13 -24 -30
-30 -16 -7 -30 -4 -30 5 0 9 -5 47 -10 85 -6 37 -5 56 2 42 6 -14 21 -19 33
-12z m5815 -418 c0 -19 9 -35 20 -35 11 0 19 -53 17 -125 -2 -107 -4 -115 -17
-55 l-15 70 -5 -70 c-6 -66 -6 -67 -15 -13 -4 32 2 68 13 79 30 30 28 80 -1
62 -16 -10 -20 -4 -11 18 7 18 4 38 -7 45 -10 6 -19 36 -19 65 1 42 5 47 20
24 11 -16 20 -46 20 -65z m-1774 -33 c9 -1 11 -11 4 -22 -7 -11 1 -14 19 -8
17 7 53 -2 80 -20 27 -18 66 -33 85 -33 32 -2 31 -4 -4 -18 -22 -9 -64 -12
-94 -6 -53 9 -54 8 -35 -58 24 -84 23 -144 -1 -87 -12 28 -18 31 -21 10 -2
-16 -11 11 -21 60 -12 62 -11 92 4 97 12 4 -15 24 -60 44 -110 50 -104 55 44
41z m1421 -279 c11 -59 9 -65 -17 -43 -17 14 -30 53 -30 86 0 77 30 49 47 -43z
m346 -174 c-13 -32 -73 -40 -73 -9 0 11 8 20 18 20 10 0 13 20 7 45 -12 43
-11 44 23 9 20 -19 31 -48 25 -65z m-82 -146 c-24 -4 -31 -19 -24 -46 7 -29 2
-37 -18 -29 -16 6 -29 2 -29 -9 0 -10 -8 -19 -18 -19 -10 0 1 35 24 79 35 63
49 74 72 55 24 -20 23 -25 -7 -31z m-1711 -20 c0 -110 -169 -347 -312 -437
-89 -57 151 -176 326 -163 47 4 86 7 86 6 0 -1 9 -53 21 -115 32 -172 -4 -389
-95 -574 -41 -82 -73 -161 -72 -174 1 -14 -5 -23 -13 -20 -7 2 -66 -53 -130
-122 -64 -69 -177 -170 -251 -225 -119 -89 -169 -159 -113 -159 11 0 4 -12
-16 -27 -24 -17 -33 -40 -24 -61 8 -22 5 -29 -10 -20 -13 8 -18 3 -12 -14 5
-15 21 -26 34 -23 13 4 18 -4 10 -17 -9 -14 -29 -6 -58 25 -30 31 -38 52 -23
62 13 8 6 15 -18 15 -32 1 -27 9 26 43 127 82 48 56 -158 -52 -201 -105 -368
-173 -484 -200 -32 -7 -53 -23 -49 -37 12 -37 105 -40 215 -8 l100 30 0 -90
c0 -187 -110 -317 -255 -300 -74 8 -85 4 -85 -29 0 -117 -108 -217 -232 -217
-69 0 -89 -9 -118 -55 -80 -126 -208 -164 -280 -85 -37 41 -37 40 -96 -20
-108 -111 -241 -97 -279 30 -37 121 -35 118 -60 93 -30 -30 -120 -30 -151 1
-33 33 -30 134 8 326 17 88 35 179 40 202 7 42 10 42 101 12 151 -50 406 22
603 170 92 69 228 246 215 280 -6 15 -2 23 9 16 88 -54 202 573 142 783 l-18
62 98 10 c379 36 757 456 841 934 l20 115 194 30 c279 44 323 44 323 -1z
m1412 -108 c-6 -25 -25 -89 -41 -142 -27 -85 -27 -94 -1 -73 16 14 24 34 17
45 -7 12 -4 15 8 8 11 -7 56 23 99 66 57 57 86 73 107 60 27 -17 12 -28 -27
-21 -10 2 -11 -7 -4 -18 14 -22 -87 -114 -115 -105 -8 3 -15 -4 -15 -14 0 -20
-120 -92 -143 -86 -7 2 -8 -16 -2 -39 9 -35 5 -40 -25 -29 -31 12 -32 10 -8
-20 24 -30 24 -32 0 -18 -22 14 -26 9 -15 -19 12 -31 9 -32 -17 -10 -23 19
-25 31 -9 40 12 8 20 18 17 22 -11 16 112 309 136 324 14 9 26 25 26 36 0 11
-9 15 -20 8 -11 -7 -20 -3 -20 9 0 11 14 21 32 21 24 0 29 -12 20 -45z m-1422
-139 c-6 -15 -28 -29 -49 -30 -36 -3 -36 -1 -5 54 34 59 78 39 54 -24z m-2624
-146 c228 -59 326 -128 493 -344 110 -143 265 -255 424 -307 130 -42 134 -46
155 -130 46 -183 16 -432 -79 -646 -22 -49 -35 -94 -30 -99 6 -6 23 19 38 55
l27 66 10 -52 c6 -28 4 -48 -5 -43 -8 5 -26 -4 -39 -20 -13 -16 -32 -25 -40
-20 -9 5 -39 -21 -68 -59 -54 -71 -66 -102 -32 -81 35 22 22 -2 -23 -42 -24
-21 -37 -27 -29 -13 24 41 -5 29 -84 -34 -406 -325 -799 -111 -872 474 -13
103 -12 105 38 105 29 0 47 -8 41 -18 -19 -31 31 -247 79 -341 258 -506 850
-38 850 672 l0 94 56 -53 c100 -96 135 -66 58 48 -72 107 -233 171 -290 114
-33 -33 -30 -56 7 -56 53 0 55 -57 2 -146 -114 -194 -357 -279 -642 -225 -162
31 -247 24 -361 -31 -33 -15 -55 -34 -49 -41 12 -18 -83 -118 -102 -107 -18
12 -42 -17 -96 -114 -39 -70 -39 -76 -7 -95 30 -18 29 -20 -10 -20 -49 -1 -78
29 -46 49 12 8 -14 52 -62 106 -394 443 -170 1220 390 1356 137 33 165 33 298
-2z m2846 -120 c-36 -28 -53 -58 -46 -76 6 -17 5 -55 -3 -86 -13 -49 -17 -42
-36 59 -21 118 -16 126 70 114 15 -2 22 5 15 16 -7 11 -1 24 13 29 50 17 44
-11 -13 -56z m-4039 -317 c34 -17 100 -38 146 -45 74 -12 83 -19 71 -56 -89
-297 9 -684 228 -900 142 -140 184 -135 305 33 53 74 91 135 84 135 -6 0 -2
12 10 27 13 15 18 32 11 38 -6 6 8 17 31 25 23 7 36 21 30 31 -12 21 -13 21
166 28 69 3 125 -1 125 -9 0 -8 23 -10 50 -5 29 6 50 0 50 -13 0 -13 37 -22
91 -22 50 0 87 7 81 16 -5 9 40 27 100 39 60 13 135 41 166 63 31 23 64 34 72
26 9 -8 11 -4 4 8 -7 13 6 40 29 60 40 35 129 205 114 217 -4 3 -25 15 -47 27
-39 21 -39 22 -2 36 52 20 214 -68 235 -128 l17 -46 -58 41 c-79 56 -76 61
-91 -129 -8 -93 -21 -170 -29 -170 -8 0 -14 -29 -15 -65 0 -68 -85 -284 -103
-266 -6 6 -28 -5 -49 -24 -22 -19 -45 -32 -52 -28 -6 3 -16 -5 -20 -18 -5 -16
1 -19 19 -8 16 9 13 -2 -7 -24 -54 -62 -41 -79 20 -26 l55 48 -51 -55 c-28
-30 -76 -60 -106 -65 l-55 -10 66 60 c36 33 56 60 44 60 -12 1 -39 -18 -59
-41 -139 -152 -324 -102 -280 77 35 143 158 247 137 115 -15 -92 3 -88 98 20
73 83 219 154 251 122 6 -6 -13 -58 -41 -116 -29 -57 -49 -108 -46 -111 11
-10 82 117 108 193 l24 67 -105 -13 c-92 -11 -116 -24 -194 -107 -48 -52 -81
-77 -72 -55 41 104 39 115 -11 100 -200 -61 -250 -405 -60 -412 l52 -2 -50
-14 c-27 -8 -56 -6 -63 5 -7 10 -28 13 -46 6 -19 -7 -37 0 -44 17 -6 17 -22
30 -36 30 -46 0 -135 212 -146 350 l-10 130 -69 0 -69 0 6 -125 c4 -69 15
-131 24 -138 10 -7 8 -38 -5 -70 l-22 -57 7 54 c4 30 0 50 -10 44 -9 -5 -17
11 -17 36 0 184 -61 283 -117 193 -13 -20 -15 -37 -4 -37 10 0 24 9 31 20 25
41 50 18 50 -45 1 -95 54 -304 100 -395 22 -43 40 -82 40 -87 0 -36 -501 133
-677 228 -160 87 -172 91 -151 54 8 -15 7 -18 -4 -8 -10 9 -18 26 -18 38 0 12
-13 26 -28 31 -17 6 -22 0 -14 -13 9 -15 2 -18 -21 -9 -20 8 -25 17 -12 21 13
4 -46 77 -131 161 -271 269 -364 541 -295 852 l34 152 83 -67 c46 -38 112 -82
147 -100z m4893 -20 c7 7 2 -15 -10 -48 -19 -50 -28 -56 -50 -34 -35 35 -33
56 4 42 17 -7 30 -3 30 8 0 10 -9 19 -20 19 -11 0 -20 10 -20 22 0 17 7 17 27
1 15 -13 32 -17 39 -10z m-4614 -253 c-12 -82 -29 -161 -38 -175 -11 -16 -8
-24 7 -20 13 3 35 -39 50 -95 33 -121 34 -128 10 -91 -10 17 -25 24 -32 17
-16 -17 40 -99 58 -86 7 6 9 5 4 -2 -5 -7 9 -31 30 -54 30 -32 33 -45 14 -57
-18 -12 -16 -16 9 -17 18 0 40 -10 48 -23 9 -14 5 -18 -9 -9 -13 8 -23 4 -23
-8 0 -31 -35 -6 -62 44 -17 31 -16 37 3 26 15 -10 21 -6 16 9 -4 13 -17 24
-27 24 -23 -1 -73 89 -83 147 -4 22 -17 90 -30 152 -28 137 -7 338 34 338 16
0 29 11 29 23 0 13 3 20 7 15 4 -4 -3 -75 -15 -158z m4568 68 c0 -26 17 -65
39 -87 33 -33 34 -42 9 -62 -24 -20 -27 -18 -15 12 11 28 7 33 -20 23 -25 -10
-40 1 -54 38 -30 79 -25 149 11 135 17 -6 30 -33 30 -59z m526 38 c24 9 30 -8
31 -88 0 -54 -7 -94 -16 -88 -10 5 -26 -15 -37 -45 -15 -42 -17 -28 -9 65 l12
119 -97 -84 c-52 -47 -106 -85 -118 -85 -12 0 -8 9 8 20 17 10 30 27 30 36 0
33 140 176 153 157 7 -10 27 -14 43 -7z m-1376 -147 c-13 -41 -17 -42 -34 -11
-11 19 -14 49 -7 67 19 50 58 -2 41 -56z m1111 -28 c-27 -15 -71 -23 -97 -18
-27 5 -63 -3 -81 -17 -29 -23 -30 -22 -6 8 15 19 62 37 110 41 45 5 92 9 103
11 11 1 -2 -10 -29 -25z m-474 -471 c18 0 33 -13 33 -30 0 -17 19 -31 45 -32
29 -2 34 -6 13 -11 -18 -5 -79 9 -135 30 -57 22 -103 35 -103 30 0 -33 53 -96
121 -145 61 -45 72 -60 47 -70 -40 -16 -141 55 -176 125 -43 85 -60 150 -34
134 13 -8 22 1 22 19 0 29 9 28 67 -8 37 -23 82 -42 100 -42z m-2307 -42 c0
-9 -9 -21 -20 -28 -12 -7 -17 -19 -13 -26 4 -8 1 -32 -8 -54 -14 -36 -16 -36
-18 -4 0 20 -9 31 -19 25 -10 -6 -9 14 3 46 19 50 75 81 75 41z m-1592 -88
c-18 -27 -42 -44 -54 -37 -13 9 -16 1 -8 -20 8 -21 3 -33 -17 -33 -71 0 8 103
106 138 3 1 -9 -20 -27 -48z m3934 -128 c-15 -10 -22 -26 -15 -37 12 -20 -105
-54 -122 -36 -18 17 18 51 55 51 21 0 43 9 50 20 7 11 23 20 36 20 16 -1 15
-7 -4 -18z m-923 -231 c38 -24 22 -51 -30 -51 -28 0 -46 8 -40 19 7 10 -6 48
-28 85 -23 36 -41 84 -41 106 1 28 18 12 59 -53 32 -51 68 -99 80 -106z
m-4546 98 c95 -55 181 -183 188 -279 12 -147 1 -190 -54 -211 -70 -27 -167
-97 -167 -122 0 -10 11 -13 25 -4 17 10 16 3 -3 -20 -15 -18 -30 -54 -32 -78
-8 -74 -9 -78 -26 -67 -9 5 -42 -17 -73 -50 -67 -71 -107 -308 -56 -327 15 -6
22 -2 15 9 -7 11 5 20 26 20 35 0 73 -61 66 -106 -1 -9 27 -29 63 -46 42 -20
49 -27 19 -21 -42 9 -46 4 -35 -54 l11 -63 -22 55 c-12 30 -30 50 -39 44 -10
-6 -14 1 -8 16 6 16 -22 46 -70 76 -55 33 -79 61 -76 88 7 53 -137 96 -286 86
-143 -9 -304 -87 -313 -151 -4 -27 2 -41 14 -34 36 22 21 -3 -25 -42 -36 -31
-39 -31 -17 -3 30 39 3 48 -34 11 -13 -13 -24 -15 -24 -5 0 11 18 31 41 45 38
23 38 28 8 58 -55 55 -32 262 39 356 136 178 367 196 603 48 54 -34 88 -51 75
-37 -17 17 -18 37 -5 61 23 43 -61 113 -103 87 -14 -9 -19 -7 -11 6 20 32
-122 81 -259 88 l-82 4 2 186 c0 102 4 182 8 177 5 -4 37 30 71 76 130 172
370 226 546 123z m3691 -266 c-7 -121 -2 -168 23 -205 18 -28 25 -59 16 -74
-12 -18 -23 -10 -40 27 -13 28 -32 46 -42 40 -10 -6 -25 -1 -33 12 -8 13 -6
18 4 12 10 -6 20 47 23 117 4 115 1 128 -34 128 -64 0 -65 35 -3 56 32 12 64
15 70 9 7 -6 12 -1 12 12 0 13 3 23 7 23 3 0 2 -71 -3 -157z m-3424 -193 c0
-20 20 -30 57 -30 37 0 56 -10 56 -30 0 -16 -7 -30 -16 -30 -9 0 -17 9 -17 20
0 11 -26 19 -59 16 -32 -2 -54 -11 -48 -20 5 -9 -4 -16 -20 -16 -43 0 -50 42
-15 84 38 44 62 46 62 6z m6170 -63 c56 -56 -1 -281 -151 -597 -45 -94 -75
-181 -67 -193 8 -14 5 -18 -7 -10 -13 8 -53 -43 -97 -122 -41 -74 -132 -222
-202 -329 -129 -199 -144 -229 -101 -204 15 8 18 7 8 -4 -9 -10 -24 -18 -34
-18 -17 0 -163 -186 -202 -256 -13 -25 -13 -45 3 -63 15 -20 16 -31 0 -41 -11
-7 -19 -4 -15 7 19 68 -45 8 -91 -86 -98 -198 -54 -193 91 10 74 104 202 269
284 368 82 98 143 188 137 200 -7 11 -5 15 3 7 9 -8 74 38 145 103 482 442
644 373 376 -158 -77 -154 -82 -170 -45 -149 15 8 18 7 8 -4 -9 -10 -24 -18
-33 -18 -17 0 -140 -159 -140 -181 0 -6 11 -5 25 3 14 8 19 8 12 0 -8 -9 -21
-15 -30 -15 -24 1 -107 -80 -107 -104 0 -10 20 -2 45 19 l45 38 -38 -45 c-20
-24 -44 -40 -51 -36 -18 11 -346 -318 -332 -332 6 -6 -9 -28 -34 -49 l-45 -38
38 45 c61 72 24 53 -142 -74 -221 -167 -753 -461 -837 -461 -9 0 -35 -16 -57
-34 -23 -19 -31 -22 -17 -6 40 45 31 56 -60 71 l-84 14 98 38 c415 164 576
526 451 1016 l-40 156 41 124 c82 248 266 596 428 808 75 99 87 125 46 101
-14 -8 -19 -8 -12 0 8 9 21 16 30 16 10 0 104 84 210 186 255 244 478 366 547
297z m-2731 -81 c1 -13 -27 -43 -61 -68 -267 -190 -344 -773 -157 -1194 46
-106 46 -104 12 -104 -49 0 -263 -98 -258 -118 2 -11 -8 -16 -23 -10 -40 15
-156 -49 -140 -76 9 -13 5 -17 -9 -8 -50 31 -543 -327 -543 -393 0 -13 34 8
75 46 l75 69 -78 -84 c-43 -46 -85 -80 -93 -75 -24 14 -64 -47 -48 -73 9 -15
7 -19 -6 -11 -28 17 -112 -119 -93 -150 8 -14 6 -18 -7 -10 -13 8 -37 -28 -61
-92 -47 -128 -68 -255 -43 -255 11 0 19 32 19 70 0 51 9 70 32 70 23 0 28 -10
18 -35 -8 -19 -13 -70 -12 -113 3 -65 -1 -75 -24 -55 -15 12 -32 18 -38 13
-13 -14 -83 65 -88 101 -3 16 4 24 14 18 10 -7 14 -20 7 -30 -6 -10 3 -13 21
-6 56 21 -173 217 -374 319 -54 27 -108 73 -124 105 -16 31 -44 56 -61 56 -42
0 -40 -7 24 -65 38 -35 47 -54 29 -61 -20 -9 -20 -17 -2 -39 19 -23 17 -27 -9
-16 -18 7 -33 19 -33 28 0 9 -11 14 -25 13 -60 -6 -235 53 -235 79 0 32 32 38
49 9 7 -11 27 -14 45 -7 18 7 27 5 21 -6 -6 -10 20 -20 59 -23 l70 -5 -42 71
c-50 85 -51 89 -11 89 17 0 26 -8 20 -18 -6 -10 4 -23 21 -30 25 -10 29 -4 17
23 -192 443 -146 929 145 1520 131 268 153 296 175 227 19 -57 107 -107 173
-97 33 4 58 -1 58 -13 0 -12 10 -8 21 8 15 22 17 17 8 -23 -13 -55 43 -135 96
-139 14 0 42 -4 63 -8 51 -10 186 46 200 83 10 26 17 26 56 -2 110 -77 365 34
304 133 -9 13 -5 17 9 8 13 -8 23 -7 23 2 0 9 45 16 99 16 129 0 309 175 246
239 -7 6 15 6 48 -1 85 -17 196 36 250 118 45 69 94 59 96 -20z m-1678 -6
c-10 -39 -18 -58 -19 -44 -1 15 -11 21 -22 14 -13 -8 -13 -25 0 -50 27 -50 25
-174 -2 -191 -15 -9 -18 -1 -11 23 15 46 -15 103 -36 70 -7 -12 -7 -32 1 -45
8 -13 5 -18 -6 -11 -11 7 -50 -41 -86 -107 -57 -101 -122 -157 -119 -104 1 23
54 89 66 81 5 -3 17 2 26 12 10 11 7 12 -8 4 -39 -23 -31 -1 54 138 90 149 82
164 -29 50 -45 -46 -96 -79 -119 -78 -34 2 -35 4 -6 12 20 5 30 18 24 28 -7
10 -5 18 5 16 36 -6 66 3 61 19 -6 20 179 203 206 203 10 0 19 11 19 23 0 13
4 20 8 15 5 -4 2 -40 -7 -78z m-1612 43 c-4 -4 21 -31 55 -59 86 -72 135 -192
136 -327 0 -114 -65 -365 -101 -387 -30 -19 -22 -90 10 -90 38 0 115 101 102
135 -6 15 -2 22 8 16 10 -6 24 6 31 27 12 39 13 39 86 -4 148 -88 676 6 612
109 -9 15 -6 18 10 8 31 -19 127 44 110 73 -9 14 -5 17 10 7 26 -16 87 25 72
49 -5 9 6 28 25 43 32 24 32 24 8 -8 -49 -62 4 -36 97 47 50 44 107 90 127
101 42 23 45 30 -51 -122 -35 -56 -52 -104 -45 -130 8 -28 6 -33 -7 -15 -45
66 -252 -495 -283 -770 -16 -138 -30 -185 -75 -243 -31 -40 -57 -82 -59 -93
-1 -11 -4 -33 -5 -50 -2 -26 -5 -26 -21 -1 -16 26 -23 25 -55 -2 -41 -36 -167
-103 -175 -93 -3 3 -45 123 -93 266 -58 171 -98 258 -115 255 -14 -4 -21 3
-14 14 22 34 -71 65 -232 76 -186 13 -199 26 -285 302 l-53 167 51 39 c49 39
72 93 27 65 -15 -9 -18 -5 -9 9 8 13 23 18 34 12 25 -16 78 113 78 189 0 100
-34 88 -92 -33 -55 -113 -61 -130 -66 -180 -1 -14 -12 -25 -24 -25 -15 0 -14
10 3 32 17 20 -1 15 -50 -14 -65 -38 -271 -91 -242 -62 5 5 -8 32 -30 59 -99
127 -4 409 184 545 43 31 69 59 57 63 -11 4 42 7 118 7 76 0 135 -3 131 -7z
m3434 -43 c17 0 30 -13 30 -30 0 -44 -93 -39 -95 5 -1 21 -5 25 -11 10 -25
-62 -46 -9 -29 73 1 5 18 -7 39 -25 20 -18 50 -33 66 -33z m-4383 4 l-70 -10
60 -15 60 -14 -65 -3 c-45 -1 -65 7 -65 28 0 22 20 29 75 27 l75 -3 -70 -10z
m4260 -85 c0 -10 -12 -13 -28 -7 -15 6 -45 -13 -67 -41 -23 -28 -48 -51 -57
-51 -9 0 14 31 51 69 62 64 101 76 101 30z m283 -58 c44 -23 88 -36 99 -30 10
7 17 5 15 -5 -6 -21 428 -456 449 -450 10 3 11 -4 4 -15 -13 -22 141 -251 170
-251 9 0 24 -8 33 -18 10 -11 6 -12 -11 -2 -19 11 -24 7 -17 -12 5 -15 21 -26
34 -23 13 4 18 -3 12 -14 -17 -26 26 -105 49 -91 9 6 24 0 32 -13 9 -14 6 -18
-9 -9 -29 18 -29 1 -2 -50 12 -21 29 -34 39 -28 10 6 28 -9 40 -34 21 -44 21
-44 -9 -7 -50 62 -36 9 37 -140 196 -399 204 -777 22 -998 -60 -73 -81 -59
-39 26 43 86 65 292 30 280 -15 -5 -41 -58 -60 -118 -116 -375 -564 -617
-1271 -687 l-120 -11 60 50 c123 105 453 350 530 394 108 61 108 103 1 65
-133 -47 -400 -204 -401 -236 0 -9 10 -10 23 -2 14 9 18 5 9 -8 -7 -12 -24
-18 -38 -13 -13 5 -96 -51 -184 -124 -417 -349 -594 -425 -650 -278 -27 73 51
285 129 350 17 14 31 35 31 47 0 11 -17 5 -38 -14 -33 -30 -38 -31 -49 -2 -8
21 -5 27 10 18 14 -8 18 -5 10 7 -7 11 3 33 22 48 32 24 32 24 7 -8 -63 -81
55 -20 180 92 70 63 189 152 263 196 76 46 129 91 122 102 -8 12 -4 15 9 8 16
-11 166 45 223 82 41 27 -47 39 -129 17 -374 -98 -889 -582 -890 -835 0 -83
-147 -110 -217 -40 -63 63 41 433 137 493 11 7 20 22 20 34 0 12 -14 10 -35
-7 -32 -24 -32 -24 -8 8 15 19 34 30 43 25 25 -16 85 65 69 94 -9 14 -8 19 1
11 8 -7 66 29 128 81 164 139 234 188 407 283 218 119 208 163 -18 78 -365
-136 -729 -493 -837 -818 -18 -55 -36 -99 -40 -99 -214 0 -97 421 206 743 81
86 217 203 301 259 84 57 151 112 148 122 -4 10 2 14 13 7 10 -6 75 15 145 46
305 136 609 203 934 204 209 0 212 1 169 37 -78 66 -402 71 -678 12 -166 -36
-258 651 -127 947 36 82 37 95 10 115 -17 12 -25 28 -18 35 7 7 24 -3 37 -21
22 -30 28 -27 61 23 88 134 209 157 372 72z m-3369 -266 c-4 -36 -8 -11 -8 55
0 66 4 95 8 65 5 -30 5 -84 0 -120z m-1568 -72 c5 -62 1 -95 -8 -80 -10 15
-17 72 -16 127 1 120 12 100 24 -47z m1656 -72 c62 -52 46 -87 -23 -50 -34 18
-47 16 -68 -12 -14 -20 -30 -27 -37 -16 -17 28 7 109 28 96 10 -6 18 -2 18 10
0 32 19 26 82 -28z m-512 -86 c-7 -102 -15 -115 -28 -45 -10 56 2 95 30 100 1
0 0 -25 -2 -55z m-21 -195 c20 -72 52 -164 73 -204 40 -79 28 -105 -50 -106
-77 0 -319 -83 -292 -100 18 -11 11 -16 -22 -15 -26 1 -65 -6 -86 -15 -32 -14
-37 -11 -25 18 7 19 13 61 13 93 0 42 16 66 59 91 85 51 127 141 118 253 l-7
93 80 8 c44 4 85 9 92 11 7 1 28 -56 47 -127z m6039 35 c-30 -52 -66 -116 -82
-141 -15 -25 -22 -54 -15 -65 6 -11 3 -18 -8 -14 -10 3 -42 -29 -71 -71 -55
-80 -64 -104 -33 -85 10 6 24 3 31 -9 7 -11 10 -20 6 -20 -3 0 -35 -8 -71 -19
-82 -23 -97 0 -40 62 25 27 45 52 46 58 3 32 181 319 198 319 12 0 33 18 46
40 51 81 45 37 -7 -55z m138 -70 c-8 -14 -16 -31 -16 -38 0 -19 -272 -257
-294 -257 -39 0 33 85 168 199 147 124 170 140 142 96z m-6078 -85 c-9 -36 -3
-53 21 -62 18 -7 29 -25 23 -40 -6 -15 0 -25 14 -23 13 3 21 -11 18 -32 -5
-26 1 -32 20 -21 21 13 21 10 0 -17 -23 -28 -19 -33 30 -42 31 -5 0 -7 -68 -4
-69 3 -120 -2 -114 -12 6 -9 -4 -17 -21 -17 -17 0 -31 14 -31 30 0 18 19 30
48 30 98 0 115 17 81 82 -49 95 -71 162 -49 148 11 -7 20 -3 20 9 0 11 5 21
10 21 6 0 5 -22 -2 -50z m5002 -10 c7 -12 1 -19 -14 -15 -16 3 -23 -10 -20
-32 4 -20 -2 -32 -13 -25 -29 18 -48 -52 -19 -73 20 -14 20 -16 -3 -10 -44 12
-44 39 -1 110 43 70 51 76 70 45z m-5463 -68 c6 -16 -3 -34 -19 -40 -17 -7
-25 -3 -18 8 7 11 3 20 -9 20 -11 0 -21 -8 -21 -18 0 -23 -118 -71 -134 -55
-7 7 5 14 26 14 36 2 36 3 -2 21 -33 15 -31 17 15 8 30 -6 55 -3 55 7 0 14 20
27 93 62 1 0 8 -12 14 -27z m5181 -255 c-9 -14 -5 -18 8 -9 14 8 28 -6 36 -37
18 -73 40 -63 60 29 13 58 25 75 44 63 27 -17 -2 -117 -44 -146 -10 -7 -12
-29 -4 -48 10 -28 7 -30 -14 -12 -15 12 -35 16 -44 8 -9 -8 -10 -4 -2 10 8 14
6 25 -3 25 -28 0 -85 136 -72 172 12 30 14 30 31 0 10 -18 12 -43 4 -55z
m-4314 42 c68 -23 89 -58 144 -226 l38 -117 -43 13 c-239 69 -483 56 -776 -40
-213 -71 -477 -234 -477 -296 0 -11 22 0 48 25 75 70 77 18 3 -63 -37 -40 -63
-77 -58 -82 6 -5 1 -14 -9 -21 -32 -20 -64 37 -72 130 -4 48 -3 70 3 48 10
-40 10 -40 26 0 12 31 17 22 18 -39 0 -50 8 -72 20 -60 12 12 12 49 0 99 -35
153 -24 275 31 334 204 220 836 389 1104 295z m787 -39 c10 34 15 8 14 -80 -1
-71 -5 -98 -10 -60 -4 39 -16 79 -26 89 -11 10 -18 42 -16 70 3 46 4 45 13 -9
l10 -60 15 50z m2764 -55 c-47 -4 -123 -4 -170 0 -47 5 -8 8 85 8 94 0 132 -3
85 -8z m-652 -55 c0 -16 -7 -30 -16 -30 -9 0 -17 9 -17 19 0 11 -13 15 -30 8
-16 -6 -26 -18 -21 -26 5 -8 -3 -14 -18 -14 -37 0 -16 49 26 60 62 16 76 13
76 -17z m-2141 -41 c-6 -16 3 -41 19 -57 40 -41 40 -212 -1 -212 -22 0 -30 22
-30 80 0 95 -13 99 -80 24 -27 -30 -42 -44 -32 -29 10 14 12 32 5 38 -6 7 14
45 45 85 31 40 52 85 46 100 -6 18 -1 22 15 13 13 -8 19 -27 13 -42z m3698
-147 c14 -47 14 -47 -25 -10 -22 21 -47 60 -55 86 -14 47 -14 47 25 10 22 -21
47 -60 55 -86z m-4206 -40 c-6 -17 -2 -23 11 -15 13 8 27 -17 35 -67 16 -93
10 -91 109 -41 68 35 77 36 73 7 -3 -17 -42 -47 -87 -64 -51 -20 -104 -63
-140 -112 -75 -104 -117 -137 -154 -123 -16 6 -35 3 -42 -8 -10 -17 95 -30
166 -20 14 1 25 -8 25 -20 0 -17 -28 -19 -93 -10 -149 23 -155 30 -72 90 201
147 159 206 -185 257 l-80 12 70 15 c39 8 1 10 -87 4 -297 -20 -653 -153 -809
-301 -46 -44 -88 -75 -94 -69 -5 5 -10 -2 -10 -17 0 -15 -5 -22 -11 -15 -18
18 81 163 152 223 303 255 1020 359 1189 172 48 -53 31 -67 -42 -32 -81 39
-208 59 -208 33 0 -12 30 -21 66 -21 36 0 99 -17 139 -38 73 -37 74 -37 87 4
17 53 -71 128 -172 147 -57 11 -62 16 -30 27 22 8 61 7 86 -3 67 -25 70 -23
57 41 -6 31 -5 64 3 71 19 20 62 -91 48 -127z m517 -264 c12 -48 45 -130 72
-183 l48 -96 -71 30 c-96 40 -371 91 -489 91 -122 0 -129 9 -68 101 36 54 88
94 174 135 72 34 156 94 203 146 l80 88 13 -112 c8 -62 25 -152 38 -200z
m-1561 153 c0 -20 -12 -25 -33 -17 -23 9 -29 5 -19 -11 14 -22 -10 -32 -65
-24 -15 2 -22 -5 -15 -15 16 -26 -41 -71 -68 -54 -23 14 31 63 130 116 74 40
70 40 70 5z m1591 -9 c-6 -10 -2 -22 9 -25 13 -5 15 -34 6 -77 l-14 -70 -14
60 c-21 93 -20 130 3 130 12 0 16 -8 10 -18z m3680 -1 c-6 -10 -3 -24 9 -31
11 -7 20 -31 20 -54 0 -34 -5 -37 -30 -16 -34 28 -41 120 -9 120 12 0 16 -8
10 -19z m-4691 -23 c23 -16 13 -19 -38 -10 -37 7 -79 3 -92 -8 -14 -12 -42
-14 -62 -6 -32 13 -29 17 22 28 92 20 137 19 170 -4z m335 -60 c319 -102 -707
-473 -1050 -380 -102 28 -104 38 -20 122 126 126 372 220 755 288 67 11 234
-5 315 -30z m-954 -140 c-34 -21 -66 -38 -71 -38 -15 0 -149 -148 -149 -166
-1 -8 19 -23 43 -31 l43 -16 -43 -12 c-24 -6 -44 -3 -44 8 0 11 -8 15 -17 9
-10 -6 -34 7 -53 28 -30 33 -17 56 18 35 5 -3 29 21 53 52 57 73 199 176 221
161 10 -5 18 0 18 12 0 12 10 16 22 9 13 -8 -4 -29 -41 -51z m5338 -74 c0 -15
-8 -21 -19 -14 -11 7 -20 1 -20 -12 0 -14 -5 -19 -12 -13 -6 7 -5 42 3 79 15
65 43 41 48 -40z m-4144 -104 c333 -36 656 -147 891 -308 83 -57 104 -64 82
-29 -9 15 -5 18 9 9 13 -8 19 -22 14 -30 -5 -8 35 -59 90 -113 119 -117 120
-132 24 -214 -161 -138 -324 -301 -315 -315 5 -9 -4 -27 -20 -40 -17 -14 -30
-35 -30 -47 0 -13 -57 -76 -125 -140 -180 -169 -187 -174 -203 -158 -9 8 73
98 181 199 109 101 190 185 181 185 -9 1 -65 -45 -125 -102 -120 -113 -130
-114 -66 -6 280 474 -594 979 -1383 799 -207 -48 -520 -201 -520 -255 0 -5 20
-8 45 -6 25 1 43 13 40 26 -11 58 320 210 361 165 19 -20 18 -23 -1 -12 -14 8
-25 6 -25 -4 0 -21 -230 -113 -301 -121 -12 -2 -16 -11 -10 -22 16 -25 -29
-51 -88 -51 -59 0 -141 -109 -141 -188 0 -51 -1 -52 -130 -45 -78 4 -130 -2
-130 -14 0 -19 28 -28 183 -54 61 -11 78 -26 110 -96 203 -453 1229 -647 1763
-332 111 65 94 35 -71 -130 -85 -86 -144 -150 -130 -142 39 21 29 1 -20 -41
-36 -31 -39 -31 -17 -3 71 91 -26 19 -148 -110 -334 -356 -317 -340 -345 -301
-14 20 -63 81 -109 136 -125 150 -429 400 -334 275 22 -30 22 -31 -3 -9 -16
14 -29 36 -29 48 0 13 -13 27 -28 32 -19 6 -23 0 -12 -18 10 -17 9 -21 -2 -11
-10 9 -18 26 -18 38 0 113 -1140 478 -1395 447 -74 -9 -72 -7 60 88 63 45 115
90 115 100 0 9 8 24 18 33 11 10 12 7 4 -8 -28 -49 18 -21 425 261 227 158
472 323 543 368 72 45 129 90 127 99 -2 9 43 19 100 21 116 5 419 87 530 145
40 21 96 34 123 30 28 -4 142 -18 255 -29z m-595 -20 c-27 -17 -27 -20 0 -21
17 -1 8 -10 -20 -21 -27 -11 -70 -15 -96 -8 -30 7 -43 4 -34 -9 7 -12 -1 -21
-17 -21 -16 0 -46 -5 -66 -12 -31 -10 -32 -8 -7 10 27 19 27 22 0 23 -16 1 29
18 100 38 157 43 179 46 140 21z m4509 -25 c-8 -25 -26 -75 -41 -112 -15 -37
-23 -75 -18 -84 6 -9 0 -23 -13 -31 -16 -10 -18 -5 -7 14 9 15 -11 3 -43 -27
-33 -31 -66 -49 -74 -41 -9 8 -9 -1 -2 -20 18 -46 169 60 264 184 37 48 65 71
65 54 0 -18 -9 -32 -20 -32 -11 0 -20 -10 -20 -21 0 -12 10 -15 23 -7 15 9 18
5 9 -9 -8 -13 -23 -18 -33 -12 -11 6 -19 -5 -19 -25 0 -39 -129 -153 -173
-153 -15 0 -27 -7 -27 -16 0 -9 -56 -43 -125 -74 -127 -59 -127 -66 -5 -93 53
-12 56 -15 22 -34 -27 -15 -41 -14 -52 4 -9 14 -26 19 -38 11 -12 -7 -22 -3
-22 9 0 12 -9 17 -20 10 -11 -7 -20 2 -20 19 0 17 -15 31 -34 31 -53 0 28 55
119 80 41 12 75 31 75 43 0 14 -13 12 -35 -5 -19 -15 11 22 66 82 56 61 119
153 140 205 39 95 84 134 58 50z m-2609 -167 c0 -29 -30 -68 -52 -68 -31 0
-33 4 -17 45 9 23 69 43 69 23z m873 -25 c-44 -49 -123 -55 -81 -6 16 19 48
36 71 38 38 3 39 0 10 -32z m-2755 -95 c-18 -22 -46 -29 -92 -21 -36 6 -66 2
-66 -8 0 -11 -9 -19 -20 -19 -11 0 -20 15 -20 32 0 24 13 30 50 23 28 -5 50
-2 50 8 0 9 28 17 62 17 55 0 60 -4 36 -32z m435 9 c70 -13 127 -32 127 -42 0
-9 8 -12 18 -6 29 18 292 -97 292 -128 0 -15 13 -32 28 -37 18 -6 22 -1 12 16
-11 17 -8 21 7 12 13 -8 18 -25 10 -37 -9 -14 -2 -17 18 -10 18 7 45 -3 64
-24 30 -33 30 -35 -5 -33 -53 3 -183 96 -185 132 -1 18 -6 21 -12 6 -11 -28
-127 6 -127 37 0 11 -8 15 -17 9 -23 -14 -163 31 -163 53 0 9 -8 12 -19 6 -28
-18 -175 10 -216 41 -47 36 -8 37 168 5z m58 -94 c879 -229 783 -918 -135
-965 -38 -2 -36 -5 14 -18 39 -10 -5 -15 -130 -14 -182 1 -184 1 -60 14 l130
13 -122 4 c-227 6 -538 104 -740 234 -101 64 -204 180 -180 203 20 20 665
-175 952 -287 246 -97 330 -83 124 21 -153 76 -744 275 -994 334 -134 32 -140
40 -94 143 128 289 740 447 1235 318z m4262 -33 c0 -16 -5 -31 -11 -32 -97
-13 -123 -8 -90 16 29 21 39 21 52 1 11 -18 15 -15 16 10 0 19 8 35 17 35 9 0
16 -13 16 -30z m-141 -73 c9 -14 5 -18 -9 -9 -13 8 -23 6 -23 -5 0 -10 -29
-29 -64 -41 -72 -26 -60 -46 47 -80 71 -23 120 -125 74 -154 -30 -19 -63 14
-39 38 25 25 30 76 7 70 -35 -10 -205 55 -205 78 0 33 -34 34 -47 1 -5 -14
-11 -9 -11 12 -2 28 8 35 38 27 22 -6 40 -3 40 5 0 13 125 74 164 79 7 1 20
-8 28 -21z m-2772 -60 c0 -8 16 -18 35 -22 27 -7 21 -14 -25 -33 -32 -14 -65
-35 -73 -47 -8 -12 -29 -24 -48 -27 -26 -4 -23 7 17 48 39 42 46 64 33 99 -16
40 -14 42 22 20 21 -14 39 -31 39 -38z m192 -18 c2 -32 -2 -59 -10 -59 -7 0
-15 -24 -18 -53 -6 -78 -24 -85 -24 -10 0 55 -7 63 -55 64 -47 0 -50 3 -20 21
19 11 44 15 54 9 10 -6 24 16 31 50 16 73 36 62 42 -22z m2308 -57 l270 -87
-69 -52 c-193 -147 -420 -348 -416 -369 3 -13 -7 -22 -21 -19 -37 8 -567 -473
-551 -500 7 -12 4 -15 -9 -8 -22 14 -50 -17 -57 -62 -5 -34 12 -31 61 10 30
25 28 19 -7 -20 -36 -41 -53 -49 -64 -30 -11 17 -16 17 -17 2 0 -12 -16 -29
-35 -36 -25 -10 -21 1 14 38 90 95 10 52 -89 -49 -54 -55 -92 -100 -83 -100 8
0 8 -11 -1 -25 -8 -14 -16 -33 -16 -43 0 -10 -17 -21 -37 -24 -33 -4 -32 0 8
43 85 90 14 50 -99 -56 -62 -58 -146 -134 -187 -169 -71 -61 -102 -105 -52
-74 15 9 18 5 9 -9 -8 -13 -24 -18 -35 -11 -12 7 -60 -26 -107 -72 l-87 -86
-267 121 c-785 355 -1486 517 -1804 418 -55 -17 -105 -27 -113 -22 -8 5 -26
-5 -39 -21 -30 -36 -33 -36 89 0 61 19 141 27 210 21 75 -7 98 -4 71 8 -36 16
-34 18 16 20 36 0 51 -7 43 -21 -9 -15 20 -17 99 -7 76 9 112 7 112 -8 0 -12
13 -17 28 -11 15 6 34 1 41 -11 8 -13 -7 -21 -38 -21 -28 0 -51 7 -51 15 0 16
-404 16 -433 1 -9 -5 -72 -25 -138 -45 -67 -19 -143 -51 -169 -71 l-47 -35 61
-32 c34 -18 88 -58 119 -89 41 -41 88 -63 158 -74 78 -12 90 -18 59 -31 -22
-9 -69 -11 -104 -6 -35 6 -109 -4 -166 -23 -121 -40 -151 -29 -52 18 39 18 75
41 81 51 16 26 -106 121 -173 135 -43 8 -52 16 -33 29 32 22 -175 -1 -233 -25
-24 -10 3 -12 65 -5 151 17 433 -106 323 -141 -142 -45 -267 -22 -384 72 -42
33 -81 56 -86 50 -6 -5 13 -28 42 -50 32 -25 43 -46 30 -54 -12 -8 -65 27
-118 76 -52 49 -124 96 -159 103 -35 8 -58 22 -52 32 6 10 -2 14 -17 8 -16 -6
-43 3 -60 20 -18 18 -39 30 -48 29 -40 -7 -87 3 -79 17 5 8 -13 16 -40 18 -27
2 -63 20 -80 40 -16 20 -25 27 -18 14 7 -15 -3 -20 -31 -12 -39 10 -39 13 -8
30 23 13 51 11 87 -6 29 -14 68 -28 86 -32 43 -8 400 -165 428 -188 11 -9 33
-8 50 3 25 17 25 19 -1 16 -16 -2 -115 37 -220 87 -352 168 -995 380 -1365
450 l-175 33 0 78 0 78 105 -14 c515 -66 1102 -289 1508 -573 208 -145 371
-175 362 -66 -2 25 -9 43 -16 38 -7 -4 -43 29 -80 75 -37 46 -54 75 -38 65 16
-10 38 -19 48 -19 11 0 55 -48 99 -106 l79 -106 73 72 c40 39 80 64 89 55 10
-8 11 -4 3 9 -8 15 39 78 122 162 75 75 115 112 89 82 -26 -30 -42 -64 -35
-75 16 -25 -56 -68 -79 -47 -8 8 -8 1 1 -14 11 -19 9 -24 -7 -14 -15 9 -18 3
-10 -19 10 -26 42 -4 155 105 174 169 463 443 616 585 63 58 113 111 110 118
-2 7 1 13 8 13 25 0 77 55 67 71 -5 9 1 23 14 31 14 9 18 6 9 -9 -8 -13 -7
-23 3 -23 24 0 148 130 135 143 -6 6 10 28 35 49 l45 38 -38 -45 c-74 -88 1
-43 104 61 125 126 224 141 224 34 0 -75 56 -140 140 -161 62 -15 57 -17 -50
-16 -293 4 -242 -37 93 -74 390 -43 862 -177 1234 -350 181 -84 260 -93 163
-18 -132 101 -612 294 -870 349 l-60 13 70 34 c39 18 94 49 124 70 74 50 555
-78 856 -227 114 -57 160 -67 160 -34 0 50 -359 204 -780 333 -63 19 151 47
385 49 119 2 153 8 145 28 -7 19 3 23 35 13 75 -23 113 -53 50 -40 -92 20 -62
-1 70 -48 69 -24 173 -62 231 -85 74 -29 113 -35 127 -21 27 27 -13 49 -266
144 l-195 74 104 26 c137 35 256 82 246 98 -20 33 121 4 368 -75z m-1220 56
c0 -8 -29 -39 -65 -68 l-65 -52 103 6 c57 3 99 0 95 -8 -5 -7 16 -17 47 -21
30 -3 -33 -14 -141 -23 -239 -21 -250 -12 -125 96 91 79 151 107 151 70z m670
-16 c31 -12 16 -21 -70 -41 -61 -14 -131 -39 -157 -55 -25 -16 -52 -24 -58
-18 -6 7 -1 12 13 12 13 0 20 7 14 17 -6 9 -40 12 -76 7 -56 -9 -60 -12 -26
-26 36 -13 34 -15 -12 -17 -33 0 -51 10 -51 29 0 29 47 40 148 35 25 -1 45 7
45 19 0 11 18 16 40 10 22 -6 45 -2 51 8 6 10 36 13 65 6 42 -9 47 -6 24 10
-34 25 -9 26 50 4z m-4546 -82 c-19 -33 -41 -60 -49 -60 -8 0 -15 -12 -15 -27
0 -32 70 -117 84 -102 12 12 420 -108 443 -130 9 -9 -76 9 -190 41 -229 64
-278 69 -313 34 -19 -19 -24 -17 -24 9 0 41 -19 52 -125 75 l-85 19 95 -9 c90
-9 95 -7 95 39 0 27 9 54 20 61 12 7 16 20 10 30 -11 19 42 80 70 80 10 0 3
-27 -16 -60z m1850 38 c13 -13 18 -36 12 -51 -6 -17 0 -26 15 -23 107 25 63
-343 -57 -472 l-54 -58 60 37 60 37 -39 -44 c-21 -25 -49 -41 -62 -36 -13 5
-68 -12 -121 -37 -115 -54 -215 -86 -168 -53 27 19 27 22 0 23 -16 0 16 19 73
41 291 111 407 375 256 579 -60 81 -41 123 25 57z m3624 -223 c1 -19 -6 -35
-17 -35 -29 0 -44 71 -28 133 l15 57 14 -60 c7 -33 14 -76 16 -95z m-1637 24
c289 -86 292 -107 4 -32 l-237 61 -79 -49 c-43 -27 -86 -47 -94 -44 -8 3 -15
-3 -15 -13 0 -11 -27 -25 -60 -32 -33 -7 -65 -21 -71 -32 -6 -10 -29 -18 -51
-18 -25 0 -35 9 -27 22 9 15 1 18 -23 11 -21 -7 -83 -4 -138 5 l-100 17 96 3
c173 4 94 82 -83 82 -140 0 -222 33 -194 78 11 19 24 16 51 -8 29 -26 67 -32
178 -25 78 4 142 0 142 -10 0 -93 191 -132 268 -55 11 11 40 20 65 20 28 0 64
24 90 60 25 33 50 51 57 40 6 -10 106 -47 221 -81z m1485 -2 c-48 -48 -143
-71 -105 -26 14 17 29 25 35 20 6 -6 23 7 39 29 15 23 37 35 48 28 13 -8 7
-27 -17 -51z m52 -174 c-65 -52 -559 -486 -981 -864 -191 -171 -474 -420 -630
-554 l-282 -243 -12 73 c-11 69 -5 78 108 180 65 60 114 116 109 125 -6 10 0
24 13 32 14 9 18 6 9 -9 -36 -57 29 -7 275 214 549 495 680 621 687 664 6 38
2 41 -24 19 -53 -44 -32 -9 24 42 30 26 43 32 28 13 -15 -19 -18 -35 -8 -35
27 0 89 71 75 85 -7 6 -3 16 8 23 41 26 8 -51 -47 -108 -95 -99 -29 -68 79 38
56 54 209 189 341 300 l240 202 18 -80 c16 -71 13 -84 -30 -117z m-2289 119
c12 -19 -285 -53 -304 -34 -6 7 26 12 72 12 46 0 83 9 83 20 0 25 133 27 149
2z m-3065 -139 c-6 -16 -3 -24 8 -18 10 6 45 -11 78 -39 51 -42 52 -46 10 -24
-27 15 -56 25 -64 23 -24 -7 -99 114 -85 136 18 30 67 -42 53 -78z m5458 68
c10 6 18 -16 18 -49 0 -109 31 -156 113 -171 63 -12 70 -18 41 -34 -19 -11
-54 -13 -77 -6 -37 12 -41 8 -30 -34 39 -138 39 -138 5 -125 -17 7 -32 32 -32
55 -1 132 -19 125 -285 -126 -52 -49 -98 -84 -103 -79 -5 5 71 80 169 168
l178 159 -12 80 c-7 45 -16 85 -19 89 -10 11 -126 -80 -294 -229 -78 -70 -147
-122 -153 -116 -6 5 7 23 29 39 120 87 410 359 412 386 1 21 5 23 11 7 6 -14
19 -20 29 -14z m-1982 -76 c0 -10 -16 -13 -35 -8 -19 6 -64 16 -100 23 -36 7
-61 20 -56 29 13 20 191 -20 191 -44z m-4505 2 c-74 -55 -69 -71 26 -87 121
-21 84 -32 -47 -15 l-113 15 47 61 c27 33 69 62 95 63 46 4 46 3 -8 -37z
m1736 -29 c133 -44 324 -129 229 -102 -187 52 -451 154 -398 154 5 0 81 -23
169 -52z m4709 -36 c0 -16 5 -41 11 -57 7 -18 -102 -127 -305 -306 -173 -154
-360 -320 -416 -370 -187 -168 -741 -655 -848 -745 -67 -56 -73 -105 -6 -52
19 15 -5 -9 -55 -55 -50 -46 -95 -80 -99 -75 -4 4 16 27 46 50 30 23 49 47 44
53 -6 6 -73 -45 -149 -112 -130 -115 -139 -120 -150 -78 -22 80 -16 88 192
268 325 281 703 615 995 878 630 569 740 658 740 601z m-1435 -101 c41 -17 75
-36 75 -41 0 -14 -206 69 -230 93 -21 20 12 10 155 -52z m-4755 0 c334 -48
707 -171 1007 -332 160 -87 172 -91 151 -54 -8 15 -7 18 4 8 10 -9 18 -26 18
-38 0 -12 13 -26 28 -31 19 -6 23 0 12 18 -9 16 -10 22 -2 15 9 -8 15 -21 15
-30 0 -24 60 -87 83 -87 10 0 7 15 -9 34 -18 23 -19 29 -2 19 14 -9 25 -6 25
7 0 12 21 6 47 -14 26 -19 46 -49 45 -66 -1 -16 11 -27 26 -24 24 5 24 1 3
-25 -23 -27 -11 -48 81 -146 153 -163 72 -180 -130 -27 -143 109 -427 282
-548 334 -385 168 -747 272 -1039 299 -142 14 -145 15 -145 70 0 31 -6 70 -12
88 -11 27 -1 31 65 21 42 -6 167 -23 277 -39z m6461 -63 c17 6 26 4 20 -6 -6
-10 3 -28 19 -42 22 -18 24 -34 9 -63 -12 -21 -15 -48 -7 -61 8 -12 5 -17 -6
-10 -25 16 -152 -113 -131 -134 8 -8 5 -12 -8 -9 -24 8 -369 -297 -362 -319 3
-8 -4 -17 -15 -21 -61 -23 -570 -507 -556 -529 7 -11 3 -14 -9 -7 -11 7 -33
-3 -48 -21 -18 -23 -19 -29 -2 -19 46 28 26 2 -60 -78 l-85 -79 69 75 c38 41
60 75 49 75 -24 0 -219 -196 -215 -216 3 -19 -86 -124 -106 -124 -8 0 16 32
53 70 120 123 45 75 -140 -91 -99 -89 -176 -169 -170 -178 5 -9 -6 -29 -24
-44 -23 -18 -29 -19 -19 -2 9 14 7 25 -3 25 -24 0 -87 -71 -74 -83 6 -6 -10
-28 -35 -49 -36 -31 -39 -31 -17 -3 16 21 18 35 6 35 -21 0 -53 -38 -54 -63 0
-8 -8 -21 -18 -30 -11 -10 -12 -6 -2 11 11 18 7 24 -12 18 -15 -5 -28 -19 -28
-31 0 -12 -8 -29 -18 -38 -11 -10 -12 -6 -4 9 12 20 2 22 -41 11 -73 -18 -120
-15 -190 14 -31 13 -70 18 -88 12 -18 -7 -26 -4 -19 7 7 11 9 20 4 20 -4 0
-83 27 -175 60 -92 34 -180 56 -194 51 -15 -6 -22 -3 -16 7 6 10 -5 24 -24 32
-207 81 -1379 521 -1521 570 -182 63 -190 64 -309 37 -107 -23 -115 -28 -64
-38 32 -6 65 -2 72 8 7 10 30 12 50 4 31 -13 26 -20 -33 -42 -84 -31 -121 -36
-80 -9 24 16 22 19 -14 20 -24 0 -49 9 -56 20 -7 11 -46 20 -88 20 -41 0 -119
22 -174 50 -113 58 -115 58 -95 25 23 -37 26 -77 5 -64 -10 7 -14 20 -8 29 6
9 1 23 -10 30 -11 7 -17 19 -12 27 42 68 -145 182 -448 273 -170 51 -377 114
-460 139 -82 25 -276 83 -430 128 -154 44 -347 101 -430 126 -82 24 -156 43
-164 41 -8 -2 -6 19 5 47 25 66 24 74 -4 57 -14 -9 -18 -5 -9 8 7 12 26 18 41
12 15 -6 33 -1 40 11 23 36 71 23 71 -19 0 -50 37 -66 280 -120 637 -142 1374
-414 1521 -561 150 -150 346 -197 538 -129 192 67 774 -122 2120 -689 244
-103 387 -140 334 -87 -7 7 -1 26 12 43 21 26 19 28 -15 16 -22 -8 -4 17 40
55 44 38 83 60 87 49 4 -11 18 -9 35 4 15 13 23 30 18 39 -5 9 6 28 25 43 32
24 32 24 8 -8 -16 -19 -21 -35 -12 -35 8 0 -1 -18 -21 -40 -19 -21 -43 -34
-52 -29 -10 6 -37 -7 -62 -30 -24 -23 -36 -41 -27 -41 9 0 5 -13 -9 -30 -55
-67 11 -22 180 122 99 84 174 162 167 173 -8 12 -4 15 9 8 28 -18 368 285 351
312 -7 12 -4 16 7 9 19 -12 218 160 701 602 101 93 179 178 172 189 -7 12 -4
16 7 9 10 -7 95 58 188 144 l168 156 -22 81 -21 81 57 -20 c31 -11 70 -15 87
-8z m-5231 -27 c0 -11 14 -15 30 -8 22 8 27 2 18 -21 -7 -17 -18 -32 -25 -32
-41 1 -83 80 -43 80 11 0 20 -9 20 -19z m5015 -29 c3 -38 -58 -105 -305 -332
-288 -265 -348 -325 -285 -287 17 10 16 4 -2 -19 -31 -38 -53 -46 -31 -11 34
55 -46 -11 -319 -261 -160 -147 -287 -275 -282 -284 5 -8 1 -21 -11 -28 -11
-7 -20 -21 -20 -32 0 -11 9 -15 20 -8 53 33 8 -14 -105 -109 -98 -82 -106 -87
-39 -21 48 46 82 89 75 95 -6 7 8 33 32 59 24 25 37 46 29 46 -25 0 -232 -204
-222 -220 5 -7 -22 -44 -60 -80 -38 -36 -64 -73 -59 -81 5 -8 -7 -27 -26 -42
-32 -24 -32 -24 -8 8 24 30 24 35 0 35 -15 0 14 36 63 79 50 44 83 80 75 80
-8 1 -102 -73 -207 -164 -210 -180 -235 -191 -244 -112 -5 44 20 76 160 198
493 429 796 706 786 715 -8 9 -119 -82 -190 -157 -59 -62 -203 -183 -210 -176
-8 8 321 304 420 377 37 28 38 27 13 -5 -57 -72 12 -31 98 58 88 91 77 101
-21 20 l-50 -42 40 42 c119 124 413 368 430 357 12 -7 113 69 225 168 229 203
225 200 230 134z m-3817 -144 c-87 -88 -136 -123 -68 -48 20 22 29 40 19 40
-9 0 9 27 40 59 32 33 66 54 76 48 10 -6 -20 -51 -67 -99z m-1528 47 c-17 34
-1 32 91 -15 46 -24 79 -55 79 -75 1 -24 5 -27 16 -11 10 16 25 18 45 5 21
-13 22 -18 3 -19 -15 0 -20 -10 -13 -22 10 -15 1 -15 -29 1 -23 12 -42 35 -42
50 0 15 -13 32 -30 38 -16 7 -30 1 -30 -11 0 -13 -14 -6 -31 15 -18 22 -26 28
-19 14 10 -20 2 -20 -39 -2 -28 13 -51 37 -51 54 0 24 7 22 31 -8 18 -22 26
-28 19 -14z m5390 -5 c-13 -16 -31 -25 -40 -20 -8 5 -20 -8 -26 -30 -6 -24
-27 -40 -53 -40 -26 0 -38 9 -30 21 7 12 26 17 42 11 17 -7 24 -3 16 10 -15
23 46 76 88 77 22 1 23 -5 3 -29z m-1000 -79 c0 -16 -10 -35 -23 -43 -14 -9
-18 -5 -9 9 23 38 -12 26 -67 -22 -41 -36 -39 -32 8 20 63 70 91 81 91 36z
m767 -96 c-22 -25 -53 -62 -69 -82 -101 -133 -227 -252 -245 -234 -24 24 94
158 134 154 12 -2 24 5 26 14 1 9 42 57 89 105 90 92 135 121 65 43z m-6120
-27 c45 -7 67 -19 53 -28 -15 -10 -9 -18 18 -25 23 -6 42 -3 42 7 0 10 14 18
31 18 28 0 28 -4 3 -29 -34 -33 -115 -19 -141 25 -14 22 -21 23 -33 4 -10 -16
-26 -19 -43 -8 -15 9 -45 16 -67 14 -37 -3 -37 -3 -2 7 31 9 33 15 10 30 -21
15 -18 17 12 9 22 -5 75 -16 117 -24z m6327 -64 c-74 -77 -68 -105 6 -34 33
32 60 53 60 48 0 -6 -33 -41 -73 -79 -40 -38 -67 -58 -59 -44 8 14 5 25 -6 25
-11 0 -29 -16 -40 -35 -12 -19 -21 -26 -21 -16 -1 19 159 191 177 191 5 0 -15
-25 -44 -56z m-934 -86 c-71 -67 -166 -148 -210 -182 l-80 -61 81 77 c162 155
313 288 326 287 7 0 -45 -55 -117 -121z m-5073 67 c10 -6 5 -18 -10 -27 -39
-25 -73 -21 -37 4 22 15 13 17 -35 8 -54 -11 -63 -8 -53 18 11 30 80 28 135
-3z m59 -40 c-11 -30 -9 -31 18 -10 38 31 147 -1 125 -37 -10 -16 -19 -14 -31
5 -14 21 -17 22 -18 1 0 -16 -10 -20 -25 -11 -25 16 -35 18 -101 24 -30 2 -31
8 -10 32 36 40 57 38 42 -4z m754 -37 c68 -39 119 -75 114 -80 -7 -8 -223 114
-250 141 -28 28 25 5 136 -61z m-393 -78 c-2 -11 -16 -22 -30 -26 -22 -6 -22
-4 0 12 21 15 20 21 -5 31 -18 7 -32 1 -32 -13 -1 -18 -5 -17 -17 2 -9 14 -31
20 -50 13 -19 -8 -33 -4 -33 10 0 13 -9 18 -20 11 -11 -7 -15 1 -8 18 13 34
201 -22 195 -58z m745 -162 l78 -71 -90 61 c-49 34 -117 85 -150 112 l-60 51
72 -41 c39 -22 107 -72 150 -112z m1194 30 c215 -32 609 -148 919 -271 152
-60 286 -103 298 -95 13 8 18 5 11 -6 -7 -12 52 -50 135 -88 l148 -68 13 -107
c16 -127 14 -130 -61 -91 -758 395 -1744 666 -2079 571 -61 -17 -196 38 -155
64 159 98 475 136 771 91z m3266 -56 c-42 -42 -67 -81 -56 -85 11 -4 -13 -23
-53 -44 -69 -34 -67 -30 46 85 66 67 124 122 129 122 6 0 -24 -35 -66 -78z
m-892 -25 c-27 -22 -86 -74 -130 -114 -129 -119 -281 -243 -298 -243 -9 0 41
47 111 105 69 58 171 148 227 200 55 52 109 94 120 94 11 0 -2 -19 -30 -42z
m-4196 -28 c35 -8 50 -22 43 -41 -15 -38 -47 -35 -47 4 0 27 -5 28 -30 8 -17
-14 -30 -16 -30 -5 0 11 -11 20 -25 20 -14 -1 -47 1 -75 4 l-50 5 50 16 c28 8
64 13 80 9 17 -4 54 -13 84 -20z m3876 24 c0 -3 -24 -28 -53 -55 -29 -26 -46
-36 -37 -20 11 18 7 24 -12 18 -15 -5 -38 -29 -51 -54 -12 -25 -28 -37 -34
-27 -15 25 78 113 103 97 11 -6 31 2 44 18 24 28 40 38 40 23z m839 -65 c-13
-15 -43 -28 -66 -28 -29 -1 -35 -6 -18 -17 19 -11 11 -28 -30 -64 -49 -44 -51
-44 -17 -4 21 25 29 45 17 45 -11 0 -46 -31 -76 -70 -31 -38 -67 -70 -80 -70
-13 0 -36 -15 -52 -34 -24 -30 -23 -32 13 -19 30 12 34 10 17 -8 -12 -12 -37
-20 -55 -16 -23 5 24 59 149 172 153 140 280 212 198 113z m-3223 -23 c-41 -4
-113 -4 -160 0 -48 5 -14 8 74 8 88 0 126 -3 86 -8z m1339 -55 c85 -34 112
-70 54 -70 -19 0 -26 9 -17 23 9 15 4 20 -14 13 -15 -5 -59 1 -98 15 -38 14
-56 27 -40 28 27 1 27 4 0 23 -37 27 -15 21 115 -32z m-1185 0 c386 -56 960
-254 1556 -537 171 -81 234 -158 234 -285 0 -2 -106 44 -235 102 -599 270
-1302 528 -1719 631 -293 72 -319 83 -236 101 98 22 189 19 400 -12z m-853
-112 c-30 -19 -103 17 -87 42 7 11 32 9 61 -4 35 -16 43 -28 26 -38z m4029 14
c6 -15 -13 -49 -42 -75 -51 -45 -52 -45 -16 -2 53 63 17 56 -57 -10 -35 -32
-28 -19 18 30 91 98 84 93 97 57z m-3240 -43 c102 -14 200 -56 161 -70 -45
-16 -130 1 -116 23 6 10 -1 13 -15 8 -39 -15 -142 19 -152 49 -7 20 1 23 28
12 21 -8 63 -18 94 -22z m1556 2 c10 6 18 1 18 -11 0 -12 9 -17 20 -10 11 7
20 2 20 -10 0 -12 7 -18 16 -12 9 5 42 -3 73 -19 74 -39 86 -37 162 21 44 33
64 40 61 21 -6 -42 -76 -114 -101 -104 -11 4 -22 -13 -24 -40 -1 -26 5 -47 15
-47 10 0 18 -25 18 -57 0 -90 22 -90 114 1 47 46 86 76 86 65 0 -10 -42 -55
-93 -100 l-93 -81 18 -94 18 -94 90 79 c127 112 144 100 20 -14 l-103 -95 29
-85 c35 -101 18 -119 -70 -72 -36 19 -79 37 -96 40 -16 3 -32 14 -36 26 -4 12
-17 15 -29 8 -13 -8 -15 -4 -6 12 12 19 4 22 -31 13 -27 -6 -37 -6 -23 0 14 6
20 20 14 30 -6 10 12 8 40 -5 28 -13 51 -29 51 -37 0 -7 11 -13 25 -14 14 0
45 -6 70 -14 105 -34 16 228 -95 278 -44 20 -77 40 -72 45 5 4 36 -6 69 -24
78 -40 88 -39 76 4 -5 19 -16 87 -23 150 -9 80 -22 115 -41 115 -16 0 -27 11
-24 24 3 13 -13 25 -35 25 -71 2 -170 54 -168 88 1 21 5 24 11 8 6 -14 19 -20
29 -14z m-659 -40 c37 -16 52 -30 34 -30 -18 -1 -63 12 -100 28 -37 16 -52 30
-34 30 18 1 63 -12 100 -28z m-1073 -144 c48 -22 50 -25 10 -15 -27 8 -75 13
-105 14 -34 0 -55 11 -55 28 0 31 41 24 150 -27z m730 -19 c0 -15 -10 -28 -21
-28 -12 0 -16 8 -10 19 6 10 3 24 -9 31 -11 7 -20 4 -20 -7 0 -11 -20 -14 -44
-8 -25 7 -34 16 -20 20 13 5 19 16 13 26 -6 10 17 8 50 -4 34 -11 61 -34 61
-49z m778 -11 c78 -35 140 -66 136 -69 -7 -7 -296 107 -312 123 -24 25 47 3
176 -54z m-708 3 c7 -12 21 -15 31 -9 11 6 19 1 19 -11 0 -12 8 -17 18 -11 22
13 147 -37 131 -53 -6 -7 -2 -18 10 -25 11 -7 21 -4 21 8 0 11 9 21 19 21 11
0 15 -13 8 -30 -16 -41 -38 -38 -89 15 -24 25 -38 34 -30 20 8 -14 5 -25 -7
-25 -11 0 -21 11 -21 23 0 13 -5 18 -12 12 -17 -17 -130 26 -118 45 6 9 -1 21
-15 27 -18 7 -18 10 -1 11 13 1 29 -7 36 -18z m268 -375 c-7 -39 4 -52 21 -26
10 17 23 25 29 20 33 -33 -25 -60 -77 -36 -53 24 -48 35 24 56 3 0 4 -6 3 -14z"/>
<path d="M3790 29632 c-121 -39 -293 -131 -280 -151 6 -10 0 -25 -13 -33 -14
-9 -18 -6 -9 9 21 34 -19 28 -48 -7 -14 -16 -18 -30 -10 -30 8 0 4 -13 -9 -28
-47 -58 19 -54 94 6 211 169 556 230 795 142 66 -25 140 -46 163 -47 24 -2 51
-10 60 -19 9 -9 -2 -9 -24 -1 -21 8 13 -34 77 -92 64 -59 140 -153 170 -209
43 -84 54 -94 60 -58 7 48 -69 240 -88 221 -6 -6 -1 -33 11 -58 22 -45 22 -45
-8 -8 -17 21 -26 54 -21 72 13 40 -110 158 -228 218 -188 96 -513 130 -692 73z"/>
<path d="M3326 29339 c-91 -98 -206 -304 -206 -371 0 -74 25 -57 78 54 26 56
87 150 135 209 52 64 79 112 66 120 -14 8 -14 21 2 41 52 62 -4 23 -75 -53z
m37 -6 c-13 -15 -18 -32 -12 -38 6 -6 -12 -29 -40 -51 -28 -22 -51 -49 -51
-59 0 -11 -15 -32 -33 -48 -31 -25 -31 -23 0 37 18 35 53 78 77 95 25 17 37
31 28 31 -9 0 -6 14 8 30 14 17 29 30 35 30 5 0 0 -12 -12 -27z"/>
<path d="M3835 29210 c-508 -187 -614 -896 -168 -1123 139 -71 192 -43 61 32
-282 161 -338 541 -121 826 44 57 62 98 51 109 -12 12 -8 19 10 19 17 0 26 -7
20 -16 -6 -9 -5 -17 2 -17 21 0 150 93 142 102 -13 13 126 26 303 27 91 0 165
7 165 14 0 55 -335 74 -465 27z m305 -1 c-67 -15 -216 -18 -207 -4 5 8 61 14
123 13 63 -2 101 -6 84 -9z"/>
<path d="M5624 29054 c-209 -216 -169 -627 71 -727 98 -41 107 -16 21 59 -105
92 -143 181 -141 329 2 122 21 178 105 314 55 90 22 105 -56 25z m-35 -119
c-30 -96 -51 -140 -60 -130 -6 5 4 47 22 93 35 87 61 113 38 37z"/>
<path d="M6180 29084 c0 -8 38 -48 85 -87 270 -226 311 -458 161 -925 -21 -66
41 -25 87 58 92 162 105 396 35 614 -31 95 -191 297 -235 295 -13 0 4 -23 37
-50 33 -27 50 -49 38 -49 -30 0 -111 90 -95 106 7 7 -12 22 -42 33 -65 25 -71
26 -71 5z"/>
<path d="M4250 28947 c-304 -72 -469 -313 -409 -601 24 -115 141 -266 206
-266 47 0 41 26 -19 82 -276 258 -42 737 350 715 65 -4 125 -1 132 6 33 34
-174 84 -260 64z m60 -46 c-67 -8 -145 -30 -174 -49 -39 -26 -56 -28 -67 -10
-10 15 -7 19 8 10 13 -8 23 -6 23 5 0 32 103 60 220 59 l110 -1 -120 -14z
m-326 -739 l46 -52 -47 40 c-55 46 -123 172 -122 224 0 20 18 -8 39 -62 21
-54 59 -121 84 -150z"/>
<path d="M6771 27875 c30 -175 178 -360 371 -463 205 -110 372 -231 427 -311
31 -44 65 -75 77 -68 11 7 14 4 7 -8 -11 -17 24 -198 62 -325 18 -61 48 70 37
158 -32 237 -182 418 -478 575 -213 113 -362 252 -432 403 -55 118 -88 136
-71 39z m852 -745 c19 -40 19 -40 -13 0 -17 22 -43 40 -56 40 -13 0 -24 14
-24 30 0 17 -11 31 -25 33 -44 4 -48 7 -34 29 15 24 120 -67 152 -132z"/>
<path d="M7229 26755 c84 -276 63 -513 -61 -698 -101 -150 -86 -190 26 -72
163 172 214 507 109 720 -48 97 -99 132 -74 50z m105 -360 c-7 -77 -17 -145
-23 -151 -24 -24 -28 12 -8 97 11 49 17 118 13 153 -4 35 1 58 11 52 10 -7 13
-73 7 -151z"/>
<path d="M7159 25595 c-83 -136 -113 -397 -56 -497 24 -44 28 -32 40 132 7 99
32 234 55 299 56 159 38 190 -39 66z"/>
<path d="M4995 28099 c-102 -25 -175 -75 -175 -121 0 -46 14 -47 155 -6 180
53 342 5 510 -149 85 -78 103 5 24 107 -30 38 -33 39 -58 4 -15 -20 -32 -28
-39 -17 -6 10 3 24 20 31 133 51 -273 190 -437 151z m263 -38 c99 -29 173 -82
142 -101 -26 -16 -175 40 -198 75 -6 10 -25 24 -42 30 -54 21 22 17 98 -4z"/>
<path d="M3187 27772 c-70 -32 -138 -118 -118 -151 9 -13 41 -7 91 19 101 51
231 51 315 0 84 -51 89 -51 81 13 -13 114 -228 183 -369 119z m308 -58 c59
-54 57 -79 -4 -51 -28 13 -46 29 -42 36 17 27 -222 5 -282 -25 -61 -32 -63
-32 -53 7 6 21 12 39 13 39 2 0 39 13 83 29 99 36 224 20 285 -35z"/>
<path d="M2968 27446 c-15 -16 -37 -23 -48 -16 -11 7 -20 3 -20 -8 0 -11 -25
-34 -55 -51 -81 -43 -43 -37 68 11 297 130 635 -59 768 -428 15 -41 34 -74 43
-74 18 0 -5 64 -71 194 -42 82 -239 313 -272 318 -83 12 -120 35 -99 60 18 22
16 28 -8 28 -17 0 -34 -9 -37 -19 -4 -12 -53 -13 -124 -3 -90 12 -123 9 -145
-12z"/>
<path d="M4761 27444 c-27 -19 -42 -23 -34 -9 59 96 -158 -98 -263 -235 -87
-113 -170 -314 -198 -479 -35 -204 -22 -187 -128 -163 -51 11 -118 12 -158 3
-68 -17 -68 -17 30 -19 55 -2 133 -11 174 -20 87 -20 107 10 98 145 -3 49 2
73 15 65 11 -7 27 -2 34 10 8 12 4 29 -9 36 -42 27 100 359 171 399 17 9 32
25 34 35 2 10 10 16 18 13 8 -3 15 12 15 33 0 59 53 94 164 106 18 3 29 11 24
19 -5 8 12 17 36 21 25 3 49 22 52 41 8 43 -11 43 -75 -1z"/>
<path d="M2790 27308 c-11 -4 -17 -59 -13 -125 5 -86 -2 -125 -25 -148 -22
-22 -25 -34 -8 -40 14 -4 29 -73 37 -166 12 -151 13 -146 19 111 3 149 8 295
10 325 2 30 3 54 2 53 -1 0 -11 -5 -22 -10z"/>
<path d="M5040 27281 c-772 -230 -737 -1656 40 -1650 581 5 923 828 573 1376
-141 219 -403 337 -613 274z m273 -51 c0 -18 -18 -30 -46 -30 -28 0 -47 12
-47 30 0 18 19 30 47 30 28 0 46 -12 46 -30z m150 -56 c91 -69 243 -267 231
-302 -19 -56 -77 -13 -72 55 0 9 -16 29 -36 43 -20 15 -30 33 -22 41 8 8 -14
34 -50 58 -35 25 -62 56 -59 69 4 14 -3 20 -13 13 -31 -19 -120 31 -108 61 15
41 33 35 129 -38z m-549 -37 c-12 -8 -31 -4 -40 9 -12 17 -15 14 -8 -7 10 -33
-49 -82 -111 -93 -54 -9 -43 6 59 84 68 52 97 64 108 46 9 -14 5 -31 -8 -39z
m500 -29 c442 -354 303 -1226 -221 -1378 -544 -158 -846 763 -413 1257 177
202 464 257 634 121z m-664 -103 c-12 -8 -43 -57 -70 -109 -26 -51 -54 -90
-60 -86 -6 4 -13 -8 -14 -26 -1 -19 -18 -109 -38 -202 -168 -793 573 -1217
1001 -573 102 154 224 626 149 580 -7 -4 -18 30 -23 76 -6 47 -17 100 -24 117
-8 20 -2 37 16 44 21 8 26 0 18 -31 -8 -28 -4 -37 12 -27 13 8 23 5 23 -7 0
-11 -11 -21 -25 -22 -14 0 -11 -9 9 -20 28 -16 34 -52 34 -204 1 -208 -14
-320 -40 -304 -10 6 -12 -3 -6 -20 7 -17 3 -31 -9 -31 -12 0 -17 -12 -11 -27
15 -40 -151 -273 -248 -346 -340 -260 -749 -131 -895 283 -44 123 -66 530 -30
530 13 0 18 9 12 19 -36 58 139 401 204 401 20 0 26 -7 15 -15z"/>
<path d="M4988 26622 c-342 -156 -289 -845 66 -845 353 0 464 715 132 853 -89
38 -98 37 -198 -8z m172 -27 c0 -9 23 -25 50 -35 28 -10 50 -28 50 -40 0 -11
12 -20 28 -20 15 0 32 -18 38 -40 6 -22 2 -40 -8 -40 -10 0 -18 -13 -18 -30 0
-16 10 -30 21 -30 12 0 15 10 7 23 -9 14 -5 18 9 9 30 -19 30 -137 0 -167 -18
-18 -17 -30 1 -53 28 -34 -9 -192 -44 -192 -12 0 -15 -6 -8 -13 22 -21 -26
-87 -92 -128 -150 -91 -324 -20 -382 156 -45 136 -36 402 13 372 12 -7 15 -4
8 8 -19 30 27 125 60 125 15 0 27 9 27 20 0 11 7 19 15 18 44 -7 68 5 58 31
-6 15 0 32 13 37 38 15 154 6 154 -11z"/>
<path d="M2619 27167 c-37 -53 -71 -101 -78 -107 -6 -5 -13 -23 -15 -40 -3
-16 -19 -83 -37 -147 -38 -139 -48 -126 106 -137 129 -9 150 10 125 114 -3 11
-12 70 -21 130 -15 100 -16 94 -12 -60 l5 -170 -106 7 c-103 7 -106 8 -93 60
22 96 101 277 154 354 l52 76 -10 -78 -9 -79 21 68 c36 113 -8 118 -82 9z"/>
<path d="M3227 27221 c-184 -30 -387 -292 -387 -501 0 -32 -9 -63 -20 -70 -25
-16 -26 -50 -1 -50 10 0 28 52 40 115 29 148 99 305 131 292 18 -7 12 -41 -24
-129 -30 -76 -51 -174 -56 -264 -8 -138 -7 -139 8 -34 24 157 59 280 104 356
41 72 47 92 22 77 -9 -6 -29 -2 -45 8 -21 14 -16 17 21 12 29 -4 74 11 107 35
300 222 614 -316 483 -828 -11 -44 -10 -46 11 -13 111 175 4 708 -171 847
-113 91 -93 144 22 56 173 -132 274 -489 223 -790 -10 -59 -9 -80 4 -61 68
106 31 483 -67 677 -63 125 -274 311 -318 281 -2 -1 -41 -8 -87 -16z m6 -51
c28 -28 -20 -47 -63 -25 -5 3 -24 -15 -41 -40 -39 -56 -79 -40 -47 18 11 22
26 36 32 30 6 -6 24 2 40 18 36 36 42 36 79 -1z"/>
<path d="M3734 26810 c30 -117 19 -475 -17 -543 -24 -48 -26 -61 -6 -54 67 26
90 524 29 624 -15 24 -17 18 -6 -27z"/>
<path d="M3220 26587 c-165 -139 -191 -544 -40 -637 32 -20 23 7 -24 71 -127
172 -1 631 157 571 19 -7 24 -3 15 12 -10 15 -3 18 20 9 20 -7 44 -13 54 -13
10 0 18 -13 18 -30 0 -16 7 -30 15 -31 60 -2 96 -68 107 -195 l12 -134 3 126
c6 253 -175 388 -337 251z"/>
<path d="M2452 26604 c-16 -26 -18 -154 -3 -189 9 -19 10 -48 4 -64 -6 -17 -3
-35 8 -42 10 -6 19 -27 19 -45 0 -19 25 -87 56 -152 l55 -117 54 78 c50 72
140 295 125 310 -4 4 -13 48 -20 97 -7 50 -21 93 -32 97 -10 3 -15 12 -10 20
4 7 -50 15 -120 17 -70 2 -131 -3 -136 -10z m255 -45 c63 -57 -29 -499 -104
-499 -63 0 -179 486 -123 520 28 18 203 2 227 -21z"/>
<path d="M2816 26485 c10 -164 18 -180 21 -40 2 74 -4 135 -12 135 -8 0 -13
-43 -9 -95z"/>
<path d="M2910 26340 c12 -154 100 -351 192 -429 37 -31 50 -51 31 -51 -58 0
-211 198 -252 327 -21 68 -39 103 -40 79 -3 -128 135 -349 261 -418 29 -17 29
-22 0 -70 -42 -68 -194 -36 -345 72 -53 39 -97 63 -96 55 0 -8 32 -37 72 -65
39 -27 87 -65 107 -83 20 -19 41 -29 47 -23 6 5 22 3 35 -5 83 -51 167 -18
224 87 34 62 45 99 29 93 -70 -27 -205 199 -247 416 l-28 145 10 -130z"/>
<path d="M3905 26400 c-25 -10 -45 -35 -45 -54 0 -20 -5 -54 -11 -77 -10 -36
3 -43 110 -66 67 -13 117 -33 111 -44 -7 -10 2 -13 19 -7 16 7 76 -16 133 -51
56 -35 107 -58 114 -52 6 6 2 11 -8 11 -17 0 -32 94 -36 235 -1 44 -14 69 -37
77 -19 6 -35 17 -35 24 0 22 -264 24 -315 4z m307 -30 c35 -8 45 -29 55 -118
7 -60 18 -122 24 -137 7 -19 -35 -6 -120 37 -72 36 -170 71 -218 79 -81 12
-86 16 -78 66 16 90 139 117 337 73z"/>
<path d="M2785 26218 c-8 -32 -15 -36 -30 -15 -13 19 -15 12 -8 -22 8 -35 -8
-75 -57 -144 -38 -52 -57 -91 -43 -85 48 18 201 308 162 308 -7 0 -18 -19 -24
-42z"/>
<path d="M4021 25707 c-78 -99 -43 -180 39 -90 29 31 65 61 80 66 40 14 9 77
-38 77 -21 0 -58 -24 -81 -53z"/>
<path d="M1894 23777 c-30 -34 -50 -68 -43 -75 12 -12 54 35 91 103 28 51 14
43 -48 -28z"/>
<path d="M3912 22940 c-71 -179 -17 -426 108 -490 88 -45 95 -26 24 64 -104
130 -122 292 -53 471 9 24 4 35 -17 35 -16 0 -44 -36 -62 -80z"/>
<path d="M4231 22896 c-119 -171 35 -516 231 -516 93 0 104 36 17 53 -143 29
-234 203 -209 401 14 117 7 128 -39 62z"/>
<path d="M4560 22805 c0 -137 129 -309 210 -278 26 10 17 27 -48 88 -55 53
-86 105 -103 171 -28 113 -59 123 -59 19z"/>
<path d="M2430 21552 c-33 -24 -13 -29 171 -41 478 -32 827 -136 1152 -344
188 -120 144 -16 -48 114 -303 205 -1126 380 -1275 271z m510 -32 c163 -25
304 -61 329 -83 27 -24 -15 -22 -83 5 -31 12 -150 38 -266 58 -220 38 -204 54
20 20z m500 -132 c28 -14 38 -27 24 -27 -34 -1 -164 54 -164 69 0 16 74 -6
140 -42z m246 -128 c52 -32 94 -65 94 -72 0 -7 -11 -4 -25 8 -14 11 -66 44
-115 72 -50 28 -81 52 -69 52 12 0 63 -27 115 -60z"/>
<path d="M1974 21104 c-100 -100 -154 -171 -154 -199 0 -57 16 -56 87 7 58 50
61 96 3 48 -79 -66 -16 30 101 153 128 134 130 135 118 70 -25 -128 -106 -338
-108 -278 0 30 -8 55 -17 55 -28 0 -11 -110 19 -116 46 -9 162 378 121 403 -9
6 -86 -59 -170 -143z"/>
<path d="M2231 21149 c-35 -36 -37 -42 -39 -184 -2 -102 13 -134 35 -76 6 16
3 57 -7 91 -21 75 3 153 48 153 29 0 29 -3 2 -33 -22 -25 -28 -59 -20 -124 12
-103 -16 -142 -92 -128 -27 5 -52 10 -57 11 -5 0 8 13 28 28 24 18 30 32 15
41 -46 28 -65 -61 -22 -100 39 -35 44 -35 99 -4 54 31 58 31 69 -5 9 -28 31
-39 78 -39 84 0 119 67 101 193 -14 87 13 122 40 53 20 -52 73 11 58 69 -16
62 -112 62 -158 0 -27 -35 -31 -37 -21 -7 27 80 -91 126 -157 61z m137 -74
l13 -65 49 60 c27 33 49 49 49 35 1 -14 -8 -25 -19 -25 -11 0 -20 -22 -20 -49
0 -55 -31 -85 -47 -46 -7 14 -6 0 0 -30 15 -74 -7 -136 -34 -94 -15 24 -18 23
-19 -8 0 -48 44 -32 73 25 13 27 28 37 36 24 23 -37 -28 -102 -80 -102 -59 0
-84 51 -93 193 -5 84 -1 97 30 94 24 -2 33 7 26 25 -6 15 -3 28 6 28 9 0 23
-29 30 -65z"/>
<path d="M2000 21055 c-44 -61 -44 -62 -3 -27 32 29 43 31 43 10 1 -36 39 19
40 57 0 43 -31 27 -80 -40z"/>
<path d="M2596 21055 c-36 -56 -136 -274 -136 -297 0 -9 34 -22 75 -28 41 -7
92 -22 114 -33 42 -24 92 22 89 82 -1 20 -5 23 -11 6 -6 -14 -18 -25 -28 -25
-9 0 11 63 45 140 60 135 111 177 146 120 7 -11 2 -20 -10 -20 -12 0 -16 -10
-9 -22 10 -16 19 -14 30 4 9 15 23 20 31 13 24 -24 -30 -118 -72 -129 -31 -8
-41 -29 -43 -93 l-2 -83 -13 68 c-6 38 -25 72 -42 77 -20 5 -23 3 -7 -9 13 -9
27 -47 30 -85 11 -108 57 -102 57 7 0 67 8 92 29 92 72 0 114 134 60 189 -77
77 -134 42 -210 -127 -70 -159 -70 -159 -116 -125 -53 41 -41 96 24 109 36 7
35 9 -10 11 -55 3 -107 -97 -59 -113 44 -15 20 -38 -28 -29 -27 5 -50 18 -50
29 0 10 10 12 23 4 14 -8 18 -5 10 8 -15 24 45 164 71 164 9 0 16 -9 16 -20 0
-11 19 -20 42 -20 35 0 39 5 19 29 -32 39 -7 76 41 60 47 -15 78 46 36 73 -50
31 -113 19 -142 -27z m114 5 c39 -17 39 -17 -4 -19 -24 0 -57 -14 -73 -31 -44
-44 -55 -37 -29 20 24 53 41 58 106 30z"/>
<path d="M3002 20993 c-16 -20 -17 -31 -2 -36 13 -5 -2 -59 -39 -142 -71 -156
-74 -175 -26 -175 26 0 52 42 94 146 52 130 64 146 104 138 45 -8 45 -8 -25
-149 -78 -155 -74 -172 44 -185 77 -9 65 1 -47 39 -24 9 -40 23 -35 32 14 22
133 -38 174 -89 78 -97 296 65 296 220 0 177 -137 159 -227 -28 -64 -134 -106
-158 -168 -96 -20 21 27 72 66 72 60 0 80 32 35 57 -48 27 1 123 62 123 35 -1
37 -4 12 -20 -18 -12 -20 -20 -6 -20 84 -1 31 81 -56 86 -37 3 -77 10 -88 17
-53 32 -145 38 -168 10z m48 -14 c-9 -13 4 -16 36 -8 29 7 56 3 64 -11 10 -16
0 -21 -29 -17 -36 6 -53 -15 -102 -123 -32 -71 -58 -112 -58 -90 -1 22 17 75
40 117 23 43 35 93 29 115 -8 22 -3 38 10 38 12 0 17 -9 10 -21z m161 -117
c-27 -53 -26 -58 15 -80 43 -22 42 -23 -9 -15 -41 5 -59 -5 -76 -43 -12 -27
-28 -43 -35 -36 -18 18 97 253 117 240 9 -6 4 -36 -12 -66z m288 -10 c38 -47
4 -166 -63 -222 -70 -59 -89 -62 -91 -15 -3 66 80 222 112 210 19 -8 24 -4 15
12 -35 56 -190 -180 -164 -249 6 -16 -2 -28 -19 -28 -40 0 -37 17 23 153 76
173 127 210 187 139z"/>
<path d="M4080 20582 c0 -21 33 -29 310 -72 438 -69 885 -207 1235 -383 122
-61 175 -79 175 -59 0 63 -426 284 -504 262 -31 -8 -37 -7 -20 6 29 20 1 33
-196 94 -417 129 -1000 217 -1000 152z m825 -129 c41 -14 81 -33 90 -42 8 -10
0 -12 -19 -5 -18 6 -70 22 -115 34 -44 12 -81 26 -81 31 0 16 48 9 125 -18z"/>
<path d="M3825 20346 c-47 -9 -63 -46 -20 -46 334 -1 1024 -187 1460 -395 218
-103 303 -124 234 -56 -161 157 -969 446 -1346 481 -241 23 -284 25 -328 16z
m531 -78 c85 -17 163 -40 174 -52 14 -14 7 -17 -20 -10 -120 33 -210 55 -290
72 -49 10 -74 19 -54 20 20 1 105 -12 190 -30z"/>
<path d="M3513 20087 c-30 -30 -9 -47 57 -47 301 0 989 -190 1476 -408 246
-111 237 -43 -11 77 -510 247 -1425 474 -1522 378z"/>
<path d="M2307 19973 c6 -38 52 -93 79 -93 11 0 3 19 -18 42 -21 23 -35 48
-31 55 3 6 -3 15 -14 19 -11 3 -18 -7 -16 -23z"/>
<path d="M6580 19920 c-82 -77 -141 -139 -130 -139 11 0 88 63 170 139 83 76
141 139 130 138 -11 0 -87 -62 -170 -138z"/>
<path d="M8920 30068 c0 -81 9 -110 45 -140 45 -38 45 -38 11 2 -21 26 -31 66
-26 112 3 39 -2 84 -12 100 -11 19 -17 -6 -18 -74z"/>
<path d="M1696 22650 c-7 -54 -2 -90 17 -109 31 -34 34 17 8 129 -13 60 -13
60 -25 -20z"/>
</g>
</svg>
